<svg id="Ebene_1" data-name="Ebene 1" xmlns="http://www.w3.org/2000/svg" viewBox="0 0 596.28 596.28"><defs><style>.cls-1{fill:#fff;stroke:#fff;stroke-miterlimit:10;}.cls-2{fill:#043329;}.cls-3{fill:#004d3e;}</style></defs><rect class="cls-1" x="0.5" y="0.5" width="595.28" height="595.28" rx="70.02"/><g id="L"><path class="cls-2" d="M250.57,53.75V406c0,43.66,1.34,73.71,20.16,87.37-6.21-17.05-7.11-40.66-7.11-69.68V66.8a13.06,13.06,0,0,0-13.05-13" transform="translate(0.5 0.5)"/><path class="cls-2" d="M496.16,405.42V537.17H94.92a11.78,11.78,0,0,0,.16,4.49c1.24,5.33,6.39,8.85,11.87,8.85H509.22V422.9a18.31,18.31,0,0,0-13.06-17.48" transform="translate(0.5 0.5)"/><path class="cls-3" d="M483.11,395.57h-115V406q0,6.86,0,13.67c0,3.76-.09,7.51-.2,11.21-.2,6.95-.58,13.74-1.27,20.28q-.6,5.65-1.55,11a91.36,91.36,0,0,1-6,20.73,56.81,56.81,0,0,1-5.69,10.17c-9.48,13.4-25,21.75-50.57,21.75s-41.15-8.41-50.61-21.88a58.07,58.07,0,0,1-5.54-9.9,91.75,91.75,0,0,1-6.1-21q-.91-5.24-1.51-10.76c-.7-6.62-1.09-13.5-1.29-20.53-.1-3.62-.15-7.28-.19-11,0-4.58,0-9.19,0-13.8V44.77H88.94a2.87,2.87,0,0,0-2.88,2.88,2.81,2.81,0,0,0,1.78,2.64c23.1,10.16,30.77,33.13,33.32,60.35,0,.3.07.6.1.91.87,9.71,1.12,19.93,1.18,30.32,0,.43,0,.85,0,1.28q0,5.17,0,10.38V415.34c0,3.11,0,6.22,0,9.31,0,.43,0,.86,0,1.29,0,10.35-.26,20.58-1.08,30.3,0,.31-.06.62-.1.94-2.45,27.68-10,51.11-33.43,61.4a2.82,2.82,0,0,0-1.78,2.64,2.88,2.88,0,0,0,2.88,2.89H483.11ZM208.76,356.32c-15.28.1-30.54.36-45.81,1.34-9.4.55-18.79,1.32-28.19,2.39V333.43c9.4,1.07,18.79,1.84,28.19,2.4,15.27,1,30.53,1.24,45.81,1.34,5.49-.05,11-.15,16.46-.26v19.66c-5.48-.1-11-.21-16.46-.25m16.46,12V388c-5.48-.11-11-.22-16.46-.26-15.28.1-30.54.36-45.81,1.34-9.4.55-18.79,1.32-28.19,2.39V364.85c9.4,1.07,18.79,1.84,28.19,2.4,15.27,1,30.53,1.24,45.81,1.34,5.49,0,11-.15,16.46-.26m-16.46-43.44c-15.28.11-30.54.37-45.81,1.35-9.4.55-18.79,1.32-28.19,2.39V302c9.4,1.07,18.79,1.84,28.19,2.4,15.27,1,30.53,1.23,45.81,1.34,5.49-.05,11-.15,16.46-.26v19.66c-5.48-.1-11-.21-16.46-.26m0-31.42c-15.28.11-30.54.37-45.81,1.35-9.4.55-18.79,1.32-28.19,2.39V270.59c9.4,1.07,18.79,1.84,28.19,2.39,15.27,1,30.53,1.24,45.81,1.34,5.49,0,11-.14,16.46-.25v19.66c-5.48-.11-11-.21-16.46-.26m0-31.42c-15.28.11-30.54.37-45.81,1.35-9.4.55-18.79,1.32-28.19,2.39V239.17c9.4,1.07,18.79,1.84,28.19,2.39,15.27,1,30.53,1.24,45.81,1.34,5.49,0,11-.14,16.46-.26v19.67c-5.48-.11-11-.22-16.46-.26m0-31.42c-15.28.11-30.54.37-45.81,1.35-9.4.55-18.79,1.32-28.19,2.39V207.75c9.4,1.07,18.79,1.84,28.19,2.39,15.27,1,30.53,1.24,45.81,1.34,5.49,0,11-.14,16.46-.25v19.66c-5.48-.11-11-.22-16.46-.26m0-31.42c-15.28.11-30.54.37-45.81,1.35-9.4.55-18.79,1.32-28.19,2.39V176.33c9.4,1.07,18.79,1.83,28.19,2.39,15.27,1,30.53,1.24,45.81,1.34,5.49,0,11-.14,16.46-.26v19.67c-5.48-.11-11-.22-16.46-.26m0-31.42c-15.28.11-30.54.37-45.81,1.35-9.4.55-18.79,1.32-28.19,2.39v-18c0-2.85,0-5.73,0-8.62,9.4,1.07,18.8,1.83,28.2,2.39,15.27,1,30.53,1.24,45.81,1.34,5.49,0,11-.14,16.46-.26v19.67c-5.48-.11-11-.22-16.46-.26m0-31.42c-15.28.11-30.54.37-45.81,1.35-9.41.55-18.82,1.33-28.24,2.4-.07-8.93-.32-17.94-1-26.76,9.76,1.14,19.51,2,29.27,2.52,15.27,1,30.53,1.24,45.81,1.34,5.49,0,11-.14,16.46-.26v19.67c-5.48-.11-11-.22-16.46-.26m0-31.42c-15.28.11-30.54.37-45.81,1.35-9.89.58-19.79,1.39-29.67,2.56A142.24,142.24,0,0,0,128,81.25c11.64,1.54,23.3,2.52,34.94,3.2,15.27,1,30.53,1.25,45.81,1.35,5.49,0,11-.14,16.46-.26v19.67c-5.48-.11-11-.22-16.46-.26M133.38,459c9.86,1.16,19.71,2,29.57,2.56,15.27,1,30.53,1.24,45.81,1.34q9.78-.08,19.56-.3a120.7,120.7,0,0,0,5,19.9q-12.27-.36-24.56-.45c-15.28.11-30.54.37-45.81,1.34-11.52.68-23,1.64-34.55,3.15a147.39,147.39,0,0,0,5-27.54m93.37-8.09q-9-.19-18-.28c-15.28.11-30.54.36-45.81,1.34-9.72.57-19.44,1.37-29.16,2.51.66-8.83.87-17.83.94-26.75,9.4,1.08,18.82,1.85,28.22,2.41,15.27,1,30.53,1.24,45.81,1.35,5.58-.06,11.16-.16,16.75-.27.21,6.59.58,13.2,1.24,19.69m-18-31.7c-15.28.1-30.54.36-45.81,1.34-9.4.55-18.8,1.32-28.2,2.4,0-2.53,0-5.06,0-7.56V396.27c9.4,1.07,18.79,1.84,28.19,2.4,15.27,1,30.53,1.24,45.81,1.34,5.49-.05,11-.15,16.46-.26V406c0,4.4,0,8.88.05,13.41-5.51-.11-11-.22-16.51-.26M116,57.05H225.22V73.79c-5.48-.11-11-.22-16.46-.26-15.28.11-30.54.37-45.81,1.35-12,.7-23.93,1.73-35.9,3.35A73,73,0,0,0,116,57.05M116,511.83a73.44,73.44,0,0,0,11.37-22.2c11.85,1.59,23.69,2.6,35.54,3.3,15.27,1,30.53,1.24,45.81,1.35q14.72-.13,29.44-.67a60.33,60.33,0,0,0,14.41,18.22Zm354.79,0H353a60.39,60.39,0,0,0,14.37-18.1q13.5.43,27,.55c15.32-.13,30.65-.39,46-1.37,10.14-.6,20.29-1.43,30.45-2.64Zm0-25.84c-10.16-1.19-20.31-2-30.45-2.63-15.33-1-30.66-1.24-46-1.36q-11,.08-22,.33a119.9,119.9,0,0,0,5-19.73c5.69.11,11.39.21,17.09.25,15.32-.12,30.65-.38,46-1.37,10.14-.59,20.29-1.42,30.45-2.63Zm0-31.41c-10.16-1.2-20.31-2-30.45-2.64-15.33-1-30.66-1.24-46-1.36-5.16,0-10.33.13-15.49.23.65-6.46,1-13,1.23-19.59,4.75.08,9.51.17,14.26.22,15.32-.13,30.65-.39,46-1.38,10.14-.59,20.29-1.42,30.45-2.63Zm0-31.42c-10.16-1.2-20.31-2-30.45-2.64-15.33-1-30.66-1.24-46-1.36-4.68,0-9.35.12-14,.21,0-3.88.05-7.74.05-11.52h90.41Z" transform="translate(0.5 0.5)"/></g></svg>
