<svg id="Ebene_1" data-name="Ebene 1" xmlns="http://www.w3.org/2000/svg" viewBox="0 0 32 32"><defs><style>.cls-1{fill:#004D3E;}</style></defs><path class="cls-1" d="M13.82,9.79H14a.22.22,0,0,0,.2-.23V6.35l-.23-.18a.74.74,0,0,1-.27-.59v-1a.86.86,0,0,1,.66-.89l.24,0a8.64,8.64,0,0,1,2.87,0l.22,0a.87.87,0,0,1,.67.9V5.58a.74.74,0,0,1-.27.59l-.23.18V9.56a.22.22,0,0,0,.2.23h.15a3.26,3.26,0,0,1,3,3.5V26.15a2.41,2.41,0,0,1-.36,1.27l0,.08a1.64,1.64,0,0,1-1.15.79h-.05a25.86,25.86,0,0,1-6.92,0h-.1a1.78,1.78,0,0,1-1.25-.83l0,0a2.44,2.44,0,0,1-.39-1.33V13.29a3.26,3.26,0,0,1,3-3.5"/></svg>