<svg id="Layer_1" data-name="Layer 1" xmlns="http://www.w3.org/2000/svg" viewBox="0 0 163.31 166.78"><defs><style>.cls-1{fill:#eee7df;}</style></defs><path class="cls-1" d="M225.06,131.66l-32.35-20.85a3.4,3.4,0,0,0-.8-.31v-7.19a3.48,3.48,0,0,0-3.48-3.48h-12.9L148.58,83a3.46,3.46,0,0,0-3.69,0L117.94,99.83H101.57a3.48,3.48,0,0,0-3.48,3.48v7.18a3.43,3.43,0,0,0-.8.32L64.94,131.66a3.48,3.48,0,0,0-1.59,2.92v90.34a3.47,3.47,0,0,0,3.47,3.47H223.18a3.47,3.47,0,0,0,3.47-3.47V134.58A3.48,3.48,0,0,0,225.06,131.66ZM146.74,90l15.68,9.8H131.06ZM105,106.78H185V185l-11.75,7.13L144.93,176.7a3.49,3.49,0,0,0-3.39,0l-25.81,14.75L105,185V106.78ZM70.3,136.47l27.79-17.91v62.21L70.3,163.89Zm0,35.55,38.53,23.4-38.53,22Zm7,49.42,66-37.71,69.15,37.71Zm142.4-4L180.26,196,219.7,172Zm0-53.59-27.79,16.88V118.56l27.79,17.91Z" transform="translate(-63.35 -61.61)"/><path class="cls-1" d="M118.94,141.53h41.7a3.47,3.47,0,0,0,3.47-3.48V117.2a3.47,3.47,0,0,0-3.47-3.47h-41.7a3.47,3.47,0,0,0-3.47,3.47v20.85A3.47,3.47,0,0,0,118.94,141.53Zm3.47-20.85h34.75v13.9H122.41Z" transform="translate(-63.35 -61.61)"/><rect class="cls-1" x="52.12" y="86.87" width="55.59" height="6.95"/><rect class="cls-1" x="52.12" y="100.76" width="55.59" height="6.95"/><path class="cls-1" d="M209.28,103.31a3.47,3.47,0,0,0,2.46-1L224,90a3.48,3.48,0,0,0-4.91-4.92L206.82,97.38a3.48,3.48,0,0,0,2.46,5.93Z" transform="translate(-63.35 -61.61)"/><path class="cls-1" d="M78.26,102.29a3.48,3.48,0,1,0,4.92-4.91L70.89,85.09A3.48,3.48,0,0,0,66,90Z" transform="translate(-63.35 -61.61)"/><path class="cls-1" d="M180.19,85.69a3.43,3.43,0,0,0,1.29.24,3.47,3.47,0,0,0,3.23-2.18l6.95-17.38a3.47,3.47,0,1,0-6.45-2.57l-7,17.37A3.47,3.47,0,0,0,180.19,85.69Z" transform="translate(-63.35 -61.61)"/><path class="cls-1" d="M108.76,83.75A3.48,3.48,0,0,0,112,85.93a3.43,3.43,0,0,0,1.29-.24,3.49,3.49,0,0,0,1.94-4.52l-7-17.37a3.47,3.47,0,1,0-6.45,2.58Z" transform="translate(-63.35 -61.61)"/></svg>