<svg xmlns="http://www.w3.org/2000/svg" xmlns:xlink="http://www.w3.org/1999/xlink" viewBox="0 0 507.95 282.68"><defs><style>.cls-1{fill:none;}.cls-2{fill:#e0d8cd;}.cls-3{clip-path:url(#clip-path);}.cls-4{fill:url(#Unbenannter_Verlauf_13);}.cls-5{font-size:102.96px;}.cls-10,.cls-5{fill:#fff;font-family:RobotoSlab-Black, Roboto Slab;font-weight:800;}.cls-6{letter-spacing:0.02em;}.cls-7{letter-spacing:0.02em;}.cls-8{clip-path:url(#clip-path-2);}.cls-9{fill:url(#Unbenannter_Verlauf_13-2);}.cls-10{font-size:63.48px;letter-spacing:0.02em;}.cls-11{letter-spacing:0.02em;}.cls-12{letter-spacing:0em;}.cls-13{letter-spacing:0.02em;}.cls-14{letter-spacing:0.01em;}.cls-15{letter-spacing:0em;}</style><clipPath id="clip-path" transform="translate(0 8.3)"><polygon class="cls-1" points="8.32 0 5.74 147.94 478.73 156.19 481.31 8.25 8.32 0"/></clipPath><linearGradient id="Unbenannter_Verlauf_13" x1="-930.46" y1="-10.16" x2="-921.31" y2="-10.16" gradientTransform="matrix(-16.17, 0, 0, 16.17, -14731.29, 242.4)" gradientUnits="userSpaceOnUse"><stop offset="0" stop-color="#004d3e"/><stop offset="1" stop-color="#053328"/></linearGradient><clipPath id="clip-path-2" transform="translate(0 8.3)"><polygon class="cls-1" points="141.78 162.12 138.22 253.29 474.85 263.79 478.42 172.62 141.78 162.12"/></clipPath><linearGradient id="Unbenannter_Verlauf_13-2" x1="-909.28" y1="15.98" x2="-900.02" y2="15.98" gradientTransform="matrix(-0.35, 9.97, 9.97, 0.35, -165.84, 9232.09)" xlink:href="#Unbenannter_Verlauf_13"/></defs><g id="Ebene_2" data-name="Ebene 2"><g id="Background"><polygon class="cls-2" points="7.74 26.76 0 174.51 500.2 200.73 507.95 52.98 7.74 26.76"/></g><g id="Preis"><g class="cls-3"><rect class="cls-4" x="161.29" y="-161.02" width="164.46" height="478.23" transform="translate(161.19 328.52) rotate(-89)"/></g><text class="cls-5" transform="translate(41.74 116.79) rotate(1)"><tspan class="cls-6">75</tspan><tspan class="cls-7" x="114.37" y="0">,</tspan><tspan class="cls-6" x="144.68" y="0">00</tspan><tspan class="cls-7" x="266.53" y="0"> </tspan><tspan class="cls-6" x="293.52" y="0">€</tspan><tspan x="349.22" y="0">*</tspan></text></g><g id="Liter"><g class="cls-8"><polygon class="cls-9" points="482.39 170.55 478.01 282.68 134.24 271.96 138.63 159.83 482.39 170.55"/></g><text class="cls-10" transform="translate(170.38 237.62) rotate(2)">1<tspan class="cls-11" x="30.5" y="0">,0</tspan><tspan x="86.7" y="0">5</tspan><tspan class="cls-12" x="122.03" y="0"> </tspan><tspan class="cls-13" x="137.34" y="0">L</tspan><tspan x="175.56" y="0">i</tspan><tspan class="cls-14" x="197.51" y="0">t</tspan><tspan class="cls-13" x="220.76" y="0">e</tspan><tspan class="cls-15" x="255.76" y="0">r</tspan></text></g></g></svg>