<svg xmlns="http://www.w3.org/2000/svg" xmlns:xlink="http://www.w3.org/1999/xlink" viewBox="0 0 507.95 200.73"><defs><style>.cls-1{fill:none;}.cls-2{fill:#e0d8cd;}.cls-3{clip-path:url(#clip-path);}.cls-4{fill:url(#Unbenannter_Verlauf_13);}.cls-5{fill:#fff;}</style><clipPath id="clip-path" transform="translate(0 8.3)"><polygon class="cls-1" points="8.32 0 5.74 147.94 478.73 156.19 481.31 8.25 8.32 0"/></clipPath><linearGradient id="Unbenannter_Verlauf_13" x1="-930.46" y1="-10.16" x2="-921.31" y2="-10.16" gradientTransform="matrix(-16.17, 0, 0, 16.17, -14731.29, 242.4)" gradientUnits="userSpaceOnUse"><stop offset="0" stop-color="#004d3e"/><stop offset="1" stop-color="#053328"/></linearGradient></defs><g id="Ebene_2" data-name="Ebene 2"><g id="Background"><polygon class="cls-2" points="7.74 26.76 0 174.51 500.2 200.73 507.95 52.98 7.74 26.76"/></g><g id="Preis"><g class="cls-3"><rect class="cls-4" x="161.29" y="-161.02" width="164.46" height="478.23" transform="translate(161.19 328.52) rotate(-89)"/></g><path class="cls-5" d="M57.48,108.76l.77-7.12a111.29,111.29,0,0,1,4-19.67,89.73,89.73,0,0,1,7.45-17.59,74.41,74.41,0,0,1,11-14.94L57.87,49l-.57,6.52-13-.22.35-20,53.13.93-.23,13.47a89.17,89.17,0,0,0-9.24,12.06,69.2,69.2,0,0,0-6.07,12,85.32,85.32,0,0,0-3.84,13Q76.9,93.67,75.9,102l-.78,7.12Z" transform="translate(0 8.3)"/><path class="cls-5" d="M127.12,111a31.91,31.91,0,0,1-12.92-2.84,23.28,23.28,0,0,1-9.42-7.53,17.26,17.26,0,0,1-3.23-11.14l.11-.2L119,88.47a9.05,9.05,0,0,0,2.22,6.65,8.28,8.28,0,0,0,6.17,2.49c3,.06,5-1,6.31-3.1a15.71,15.71,0,0,0,2-7.86q.11-5.84-1.89-9.29t-6.58-3.53A8.5,8.5,0,0,0,122,75.17a7.73,7.73,0,0,0-2.85,3.45l-15.92-1.14,4.94-41,44.29.77-.32,18-10.05-.18-1.43-4.45-18.35-.32-2.16,14.55a15.45,15.45,0,0,1,3.07-1.56,21.58,21.58,0,0,1,3.79-1.06,20.78,20.78,0,0,1,4.2-.36,23.3,23.3,0,0,1,12.19,2.93,18.19,18.19,0,0,1,7.42,8.53,32,32,0,0,1,2.33,13.51A26.21,26.21,0,0,1,150,99.24a22.12,22.12,0,0,1-8.85,8.75A27.71,27.71,0,0,1,127.12,111Z" transform="translate(0 8.3)"/><path class="cls-5" d="M168,130.65l-8.17-4.21a36.19,36.19,0,0,0,2.79-7.12,35.66,35.66,0,0,0,1.1-8.6l.23-13,15.18.26-.26,12a22.82,22.82,0,0,1-3.37,11.8A38.2,38.2,0,0,1,168,130.65Z" transform="translate(0 8.3)"/><path class="cls-5" d="M216.29,112.59q-11.92-.21-18.72-7.87T191,82.23l.27-15.43q.26-14.77,7.33-22.24t18.88-7.27q11.72.21,18.54,7.92t6.57,22.49l-.27,15.43Q242.08,98,235,105.38T216.29,112.59Zm.23-13.42a6.5,6.5,0,0,0,6-3.44q2.13-3.51,2.27-11.9l.31-17.54q.14-8.25-1.91-11.85a6.89,6.89,0,0,0-12.06-.24Q209,57.71,208.85,66l-.3,17.54q-.15,8.44,1.85,12A6.72,6.72,0,0,0,216.52,99.17Z" transform="translate(0 8.3)"/><path class="cls-5" d="M277.21,113.65q-11.93-.21-18.72-7.86T251.94,83.3l.27-15.44q.25-14.78,7.33-22.24t18.88-7.27q11.71.21,18.54,7.92t6.57,22.49l-.27,15.43Q303,99,296,106.44T277.21,113.65Zm.23-13.42a6.49,6.49,0,0,0,6-3.44q2.13-3.51,2.27-11.9L286,67.35q.14-8.25-1.91-11.85A6.9,6.9,0,0,0,272,55.26q-2.13,3.51-2.27,11.81l-.3,17.54q-.15,8.44,1.85,12A6.71,6.71,0,0,0,277.44,100.23Z" transform="translate(0 8.3)"/><path class="cls-5" d="M373.51,115.33a35.35,35.35,0,0,1-14.95-3.25,23.16,23.16,0,0,1-9.86-8.64,22.61,22.61,0,0,1-3.22-12.93c0-.07,0-.12,0-.15v-.1l-7.34-.13.15-8.59,7.34.12.12-7-7.34-.13.15-8.6,7.34.13v-.55a25.62,25.62,0,0,1,3.81-13.64A24.08,24.08,0,0,1,359.84,43a32.49,32.49,0,0,1,14.88-3,41.4,41.4,0,0,1,5.9.5q2.83.45,6.34,1.27l-1.35,13.65a44.75,44.75,0,0,0-5.45-1.38,34.49,34.49,0,0,0-5.67-.57,10,10,0,0,0-7.93,3.08q-2.9,3.16-3,9.1v.65l19.56.34-.15,8.6-19.56-.35-.12,7,19.55.34-.15,8.6-19.75-.35,0,.51a13.26,13.26,0,0,0,1.28,6,8.05,8.05,0,0,0,3.66,3.59,13.53,13.53,0,0,0,5.83,1.25,35.52,35.52,0,0,0,11.09-1.51L385.7,114A47.68,47.68,0,0,1,373.51,115.33Z" transform="translate(0 8.3)"/><path class="cls-5" d="M422.17,86.87l-8.34-14.78-8.84,14-8.15-5.88,11-13.43-15.3-4.74,3.28-9.55,14.86,6.8-.84-17.62,10.3.18-1.67,17.87,14.69-6.07,2.89,9.85-15.56,4.21,10,13.34Z" transform="translate(0 8.3)"/></g></g></svg>