<svg id="Ebene_1" data-name="Ebene 1" xmlns="http://www.w3.org/2000/svg" viewBox="0 0 1173.47 390.54"><defs><style>.cls-1{fill:#004D3E;}</style></defs><path class="cls-1" d="M866.32,269.18c0,21.84,0,42.54,11.73,51.51-4-10.94-4-25.72-4-41V66.53a11.32,11.32,0,0,0-7.73-10.7Z" transform="translate(-13.27 -49.87)"/><path class="cls-1" d="M891.47,336a22.85,22.85,0,0,1-3.82-2.18,9.44,9.44,0,0,1-9.21,7.42H774.21a6.83,6.83,0,0,0,7.12,7.9h107a7.14,7.14,0,0,0,7.06-5.25,6.81,6.81,0,0,0-3.94-7.89" transform="translate(-13.27 -49.87)"/><path class="cls-1" d="M880.15,331.84a1.7,1.7,0,0,1-1.71,1.7H770.68a1.7,1.7,0,0,1-.66-3.27c20.5-9,20.5-35,20.5-61.09V114.24c0-26.06,0-52.08-20.5-61.1a1.67,1.67,0,0,1-1-1.56,1.71,1.71,0,0,1,1.71-1.71h87.91V269.18c0,26.06,0,52.08,20.5,61.09a1.69,1.69,0,0,1,1.06,1.57" transform="translate(-13.27 -49.87)"/><path class="cls-1" d="M753.32,124.76l1.38,8.91H682.76v2.75a5.16,5.16,0,0,0,5.15,5.15H756a5.15,5.15,0,0,0,5.09-5.94c-3.15-20.32-10-36.77-20.38-49.39,6.08,10.85,10.32,23.68,12.62,38.52" transform="translate(-13.27 -49.87)"/><path class="cls-1" d="M619.7,314.11c-3.55-10.09-3.94-24-3.94-41V130.23C615.76,93.37,618,71,649.28,71a42.6,42.6,0,0,1,13.44,1.94c-4.51-6.41-11.8-9.83-23.75-9.83-29.5,0-30.94,20.48-30.94,56.67V262.64c0,25.61.77,43.29,11.67,51.47" transform="translate(-13.27 -49.87)"/><path class="cls-1" d="M755.85,199.3h-2.58v38c-2.14,57.64-26.35,91.45-72,100.82l0,0-2.37.43c-14.39,2.64-28.53,2.64-39.88,2.64s-25.61,0-40.08-2.67a94.34,94.34,0,0,1-31.31-11.41c11,9.71,24.95,16.18,42.08,19.35,14.24,2.63,28.31,2.63,39.61,2.63s25.26,0,39.41-2.59l1.45-.27,0,0c45.52-9,68.7-41.12,70.82-98.48V204.45a5.15,5.15,0,0,0-5.14-5.15" transform="translate(-13.27 -49.87)"/><path class="cls-1" d="M657.62,194h87.92v43.36C743,304.9,710,325,677.61,331c0,0-.11,0-.14,0-13.71,2.51-27.34,2.51-38.49,2.51s-24.9,0-38.68-2.55c-33.76-6.25-68.07-27.77-68.07-102V154.4c0-74.22,34.31-95.73,68.07-102,13.78-2.55,27.45-2.55,38.68-2.55,11.08,0,24.78,0,38.63,2.51,29.59,5.23,60,21.77,68.08,73.56H677.61v-6.17c0-32.21,0-64.41-38.63-64.41s-38.68,32.2-38.68,64.41V262.64c0,32.2,0,64.36,38.68,64.36,32.6,0,37.69-22.89,38.49-49.39V258.35c0-26.06,0-52.09-20.5-61.1a1.67,1.67,0,0,1-1.06-1.56,1.71,1.71,0,0,1,1.71-1.71" transform="translate(-13.27 -49.87)"/><path class="cls-1" d="M1066.75,72.93c-4.51-6.42-11.8-9.84-23.77-9.84-29.47,0-30.91,20.48-30.91,56.67V269.18c0,21.84,0,42.54,11.73,51.51-4-10.94-4-25.72-4-41V130.24c0-36.87,2.26-59.26,33.48-59.26a42.36,42.36,0,0,1,13.47,2" transform="translate(-13.27 -49.87)"/><path class="cls-1" d="M1141.5,83.68c10.57,17.86,16,41.41,16,70.72V269.18c0,21.84,0,42.54,11.73,51.51-4-10.94-4-25.72-4-41V164.87c0-36.19-7.84-63.09-23.68-81.19" transform="translate(-13.27 -49.87)"/><path class="cls-1" d="M1037.22,336a23.26,23.26,0,0,1-3.82-2.18,9.44,9.44,0,0,1-9.21,7.42H920a7.25,7.25,0,0,0-.16,1,6.87,6.87,0,0,0,6.86,6.86H1034.5a6.87,6.87,0,0,0,6.85-6.86,6.78,6.78,0,0,0-4.13-6.28" transform="translate(-13.27 -49.87)"/><path class="cls-1" d="M1182.6,336a23.26,23.26,0,0,1-3.82-2.18,9.44,9.44,0,0,1-9.21,7.42H1065.41a7.25,7.25,0,0,0-.16,1,6.87,6.87,0,0,0,6.86,6.86h107.77a6.87,6.87,0,0,0,6.85-6.86,6.78,6.78,0,0,0-4.13-6.28" transform="translate(-13.27 -49.87)"/><path class="cls-1" d="M1171.28,331.84a1.7,1.7,0,0,1-1.71,1.7H1061.81a1.7,1.7,0,0,1-.66-3.27c20.5-9,20.5-35,20.5-61.09V119.76c0-32.2,0-64.4-38.67-64.4s-38.64,32.2-38.64,64.4V269.18c0,26.06,0,52.08,20.5,61.09a1.7,1.7,0,0,1-.65,3.27H916.43a1.7,1.7,0,0,1-.66-3.27c20.5-9,20.5-35,20.5-61.09V114.24c0-26.06,0-52.08-20.5-61.1a1.67,1.67,0,0,1-1-1.56,1.71,1.71,0,0,1,1.71-1.71H1043c11.23,0,24.9,0,38.67,2.55,33.77,6.25,68.08,27.76,68.08,102V269.18c0,26.06,0,52.08,20.5,61.09a1.69,1.69,0,0,1,1,1.57" transform="translate(-13.27 -49.87)"/><path class="cls-1" d="M110.62,55.19V263.65c0,25.84.79,43.62,11.93,51.71-3.67-10.09-4.21-24.06-4.21-41.23V62.91a7.72,7.72,0,0,0-7.72-7.72" transform="translate(-13.27 -49.87)"/><path class="cls-1" d="M256,263.31v78H18.51a6.85,6.85,0,0,0,.1,2.66,7.11,7.11,0,0,0,7,5.24H263.69V273.65A10.82,10.82,0,0,0,256,263.31" transform="translate(-13.27 -49.87)"/><path class="cls-1" d="M241,273.8c-6-.71-12-1.2-18-1.56-9.07-.58-18.14-.73-27.21-.81-2.77,0-5.53.08-8.3.13,0-2.3,0-4.58,0-6.82H241Zm0,18.6c-6-.71-12-1.21-18-1.56-9.07-.58-18.14-.74-27.21-.81-3.06,0-6.11.08-9.17.14.39-3.83.6-7.71.73-11.6,2.81.05,5.63.11,8.44.13,9.07-.07,18.14-.23,27.21-.81,6-.35,12-.85,18-1.56ZM241,311c-6-.71-12-1.2-18-1.56-9.07-.58-18.14-.73-27.21-.81q-6.53,0-13.05.2a70.78,70.78,0,0,0,2.94-11.68c3.36.07,6.74.13,10.11.15,9.07-.07,18.14-.22,27.21-.81,6-.35,12-.84,18-1.55Zm0,15.29H171.25a35.83,35.83,0,0,0,8.5-10.71q8,.26,16,.32c9.07-.07,18.14-.23,27.21-.81,6-.35,12-.85,18-1.56Zm-210,0a43.57,43.57,0,0,0,6.73-13.14c7,.94,14,1.54,21,1.95,9,.58,18.07.74,27.11.8q8.7-.08,17.42-.4a35.72,35.72,0,0,0,8.53,10.79ZM31,57.14H95.62v9.91c-3.24-.06-6.49-.13-9.74-.15-9,.06-18.07.21-27.11.79-7.08.42-14.16,1-21.25,2A43.08,43.08,0,0,0,31,57.14M85.88,271.43c-9,.07-18.07.22-27.11.8-5.56.33-11.13.78-16.69,1.42,0-1.5,0-3,0-4.47V257.89c5.56.63,11.12,1.09,16.68,1.42,9,.57,18.07.73,27.11.79,3.25,0,6.5-.08,9.74-.15v3.7q0,3.92,0,7.94c-3.26-.07-6.51-.13-9.77-.16M96.53,290.2c-3.55-.08-7.11-.14-10.65-.17-9,.06-18.07.22-27.11.8-5.75.33-11.51.81-17.26,1.48.39-5.22.52-10.55.56-15.83,5.56.64,11.13,1.09,16.7,1.42,9,.58,18.07.74,27.11.8,3.3,0,6.61-.09,9.92-.16.12,3.91.34,7.81.73,11.66M41.27,295c5.84.68,11.67,1.16,17.5,1.51,9,.57,18.07.73,27.11.79q5.79,0,11.58-.18a69.06,69.06,0,0,0,3,11.78q-7.28-.21-14.54-.27c-9,.07-18.07.22-27.11.8-6.82.4-13.63,1-20.45,1.86a86.83,86.83,0,0,0,3-16.29M85.88,85.49c-9,.06-18.07.22-27.11.8-5.85.34-11.71.82-17.56,1.52a83.93,83.93,0,0,0-3.12-16.35c6.89.92,13.79,1.5,20.68,1.9,9,.58,18.07.74,27.11.8,3.25,0,6.5-.09,9.74-.16V85.64c-3.24-.06-6.49-.12-9.74-.15m0,18.59c-9,.07-18.07.22-27.11.8-5.57.33-11.14.79-16.71,1.42,0-5.28-.19-10.61-.61-15.83C47.22,91.14,53,91.62,58.77,92c9,.57,18.07.73,27.11.79,3.25,0,6.5-.08,9.74-.15v11.64c-3.24-.07-6.49-.13-9.74-.16m0,18.6c-9,.06-18.07.22-27.11.8q-8.34.48-16.68,1.41V114.24c0-1.69,0-3.39,0-5.1,5.56.63,11.12,1.08,16.69,1.41,9,.58,18.07.74,27.11.8,3.25,0,6.5-.09,9.74-.16v11.64c-3.24-.06-6.49-.13-9.74-.15m0,18.59c-9,.07-18.07.22-27.11.8-5.56.33-11.12.78-16.68,1.41V127.73c5.56.63,11.12,1.09,16.68,1.42,9,.57,18.07.73,27.11.79,3.25,0,6.5-.08,9.74-.15v11.64c-3.24-.07-6.49-.13-9.74-.16m0,18.6c-9,.06-18.07.22-27.11.79-5.56.33-11.12.79-16.68,1.42V146.32c5.56.64,11.12,1.09,16.68,1.42,9,.58,18.07.74,27.11.8,3.25,0,6.5-.09,9.74-.15V160c-3.24-.06-6.49-.13-9.74-.15m0,18.59c-9,.07-18.07.22-27.11.8-5.56.33-11.12.78-16.68,1.41V164.92q8.34.95,16.68,1.41c9,.58,18.07.74,27.11.8,3.25,0,6.5-.08,9.74-.15v11.64c-3.24-.07-6.49-.13-9.74-.16m0,18.6c-9,.06-18.07.21-27.11.79-5.56.33-11.12.78-16.68,1.42V183.51c5.56.64,11.12,1.09,16.68,1.42,9,.58,18.07.73,27.11.79,3.25,0,6.5-.08,9.74-.14v11.63c-3.24-.06-6.49-.13-9.74-.15m0,18.59c-9,.07-18.07.22-27.11.8q-8.34.48-16.68,1.41V202.11c5.56.63,11.12,1.09,16.68,1.42,9,.57,18.07.73,27.11.79,3.25,0,6.5-.09,9.74-.15V215.8c-3.24-.06-6.49-.12-9.74-.15m9.74,25.7V253c-3.24-.06-6.49-.12-9.74-.15-9,.06-18.07.22-27.11.8q-8.34.48-16.68,1.41V239.3c5.56.63,11.12,1.08,16.68,1.42,9,.57,18.07.73,27.11.79,3.25,0,6.5-.09,9.74-.16m-9.74-7.1c-9,.06-18.07.21-27.11.79-5.56.33-11.12.78-16.68,1.42V220.7c5.56.64,11.12,1.09,16.68,1.42,9,.58,18.07.73,27.11.8,3.25,0,6.5-.09,9.74-.16V234.4c-3.24-.07-6.49-.13-9.74-.15m156.73,23.23H180.2v6.17q0,4.07,0,8.1c0,2.22,0,4.44-.11,6.63-.12,4.11-.35,8.13-.76,12-.23,2.23-.53,4.41-.91,6.52a54,54,0,0,1-3.57,12.27,33.89,33.89,0,0,1-3.37,6c-5.61,7.93-14.8,12.87-29.92,12.87s-24.36-5-30-12.95a34.33,34.33,0,0,1-3.27-5.86,54,54,0,0,1-3.61-12.42c-.37-2.07-.66-4.19-.9-6.38-.41-3.91-.64-8-.76-12.14-.06-2.15-.09-4.31-.11-6.49,0-2.71,0-5.44,0-8.17V49.87H15a1.71,1.71,0,0,0-1.7,1.71,1.65,1.65,0,0,0,1.05,1.56C28,59.15,32.53,72.75,34,88.86l.06.53c.51,5.75.66,11.8.7,18v.76q0,3.06,0,6.14V269.18c0,1.84,0,3.67,0,5.5,0,.26,0,.51,0,.77,0,6.13-.15,12.18-.64,17.93,0,.19,0,.37,0,.56-1.46,16.38-5.94,30.25-19.79,36.34a1.65,1.65,0,0,0-1.05,1.56,1.7,1.7,0,0,0,1.7,1.7H248.24V257.48Z" transform="translate(-13.27 -49.87)"/><path class="cls-1" d="M366.09,315.35c-3.67-10.09-4.21-24.06-4.21-41.22V130.23c0-36.86,2.26-59.25,33.52-59.25a42.51,42.51,0,0,1,13.48,2c-4.52-6.42-11.81-9.84-23.78-9.84-29.51,0-30.94,20.48-30.94,56.67V263.65c0,25.84.79,43.61,11.93,51.7" transform="translate(-13.27 -49.87)"/><path class="cls-1" d="M483.57,83.66c10.57,17.86,16,41.43,16,70.74V229c0,63.57-25,100.44-74.36,109.58-14.48,2.67-28.67,2.67-40.08,2.67s-25.6,0-40.07-2.67a94.39,94.39,0,0,1-31.28-11.4c11,9.7,24.93,16.17,42.05,19.34,14.23,2.63,28.3,2.63,39.6,2.63s25.37,0,39.62-2.63c48.61-9,72.24-44,72.24-107V164.87c0-36.2-7.84-63.11-23.69-81.21" transform="translate(-13.27 -49.87)"/><path class="cls-1" d="M491.59,144.94v-.07a181.76,181.76,0,0,0-1.67-18.27l-.09-.59a131.29,131.29,0,0,0-3.76-17.43c-.18-.62-.37-1.21-.56-1.81A93.3,93.3,0,0,0,479,90.84c-.65-1.25-1.33-2.46-2-3.63a70.41,70.41,0,0,0-10.77-13.93,66.57,66.57,0,0,0-6.62-5.83c-10.84-8.33-23.36-12.73-35.8-15-13.77-2.55-27.44-2.55-38.67-2.55s-24.89,0-38.67,2.55c-12.35,2.29-24.77,6.64-35.56,14.86a65.4,65.4,0,0,0-7,6.19,70.6,70.6,0,0,0-10.37,13.39c-.84,1.39-1.66,2.81-2.43,4.3a95.22,95.22,0,0,0-6.2,15.16c-.28.89-.56,1.78-.82,2.7a131.34,131.34,0,0,0-3.55,16.44c-.09.55-.17,1.11-.25,1.67q-1.15,8-1.57,17.2c0,.38,0,.76-.05,1.15-.12,2.89-.2,5.84-.2,8.92V229c0,2.85.07,5.59.17,8.29,0,.39,0,.76.05,1.14q.39,9.18,1.5,17.22c.08.55.17,1.09.25,1.64a132.59,132.59,0,0,0,3.48,16.47c.25.9.51,1.79.78,2.66a95.27,95.27,0,0,0,6.11,15.21c.74,1.45,1.51,2.88,2.31,4.24a71.82,71.82,0,0,0,10.19,13.45,67.71,67.71,0,0,0,6.75,6.13c11,8.67,23.76,13.18,36.45,15.53,13.78,2.54,27.44,2.54,38.67,2.54s24.9,0,38.67-2.54c12.78-2.37,25.63-6.93,36.67-15.71a66.55,66.55,0,0,0,6.33-5.75,71.47,71.47,0,0,0,10.59-14c.66-1.14,1.32-2.33,1.95-3.55a94.92,94.92,0,0,0,6.42-16c.17-.57.34-1.16.51-1.75a134,134,0,0,0,3.69-17.48c0-.18.05-.36.08-.55a183.13,183.13,0,0,0,1.61-18.29v-.06c.11-2.87.19-5.79.19-8.83V154.4C491.81,151.13,491.72,148,491.59,144.94Zm-7.26,91.8c-6.36-.79-12.72-1.31-19.09-1.69-9-.58-18.05-.73-27.07-.8-2.38,0-4.75.06-7.13.1V222.81c2.38,0,4.75.09,7.13.11,9-.08,18.05-.23,27.07-.81,6.44-.38,12.87-.91,19.3-1.71V229C484.54,231.67,484.43,234.19,484.33,236.74Zm-19.12,16.91c-9-.58-17.94-.74-26.92-.81-2.42,0-4.83.07-7.25.11V241.4c2.38,0,4.75.09,7.13.11,9-.07,18.05-.23,27.07-.81,6.35-.37,12.69-.89,19-1.68-.27,5.68-.8,11-1.53,16.15C476.89,254.48,471.05,254,465.21,253.65ZM478.65,109.5a121.52,121.52,0,0,1,3.58,15.44c-5.66-.65-11.32-1.12-17-1.46-9-.57-18.05-.73-27.07-.8-2.38,0-4.75.07-7.13.11v-3c0-2.8,0-5.65,0-8.53,2.4,0,4.8.09,7.21.11,9-.07,18-.23,27.08-.81C469.75,110.28,474.2,110,478.65,109.5ZM431,129.84c2.38,0,4.75.09,7.13.1,9-.07,18.05-.22,27.07-.81,5.8-.34,11.6-.81,17.4-1.49.76,5.11,1.33,10.45,1.61,16.12-6.33-.78-12.67-1.3-19-1.68-9-.58-18.05-.73-27.07-.81-2.38,0-4.75.07-7.13.11Zm34.2,86.62c-9-.58-18.05-.74-27.07-.81-2.38,0-4.75.07-7.13.11V204.21c2.38,0,4.75.09,7.13.11,9-.07,18.05-.22,27.07-.81,6.44-.38,12.87-.9,19.3-1.71v16.37C478.11,217.36,471.68,216.84,465.24,216.46Zm0-18.6c-9-.58-18.05-.73-27.07-.8-2.38,0-4.75.07-7.13.1V185.62c2.38,0,4.75.09,7.13.11,9-.08,18.05-.23,27.07-.81,6.44-.38,12.87-.9,19.3-1.71v16.37C478.11,198.77,471.68,198.25,465.24,197.86Zm0-18.59c-9-.58-18.05-.73-27.07-.81-2.38,0-4.75.07-7.13.11V167c2.38,0,4.75.08,7.13.1,9-.07,18.05-.22,27.07-.81,6.44-.38,12.87-.9,19.3-1.71V181C478.11,180.17,471.68,179.65,465.24,179.27Zm0-18.6c-9-.58-18.05-.73-27.07-.8-2.38,0-4.75.07-7.13.1V148.43c2.38,0,4.75.09,7.13.11,9-.07,18.05-.23,27.07-.81,6.36-.38,12.72-.9,19.08-1.69.11,2.75.22,5.49.22,8.36v8C478.11,161.58,471.68,161.06,465.24,160.67Zm12.22-54.85q-6.07-.57-12.16-.93c-9-.58-18.05-.73-27.08-.81-2.46,0-4.92.07-7.37.12-.14-3.88-.38-7.76-.78-11.57,2.71.05,5.43.1,8.15.12,9-.07,18-.22,27.08-.8l5.66-.38A82.08,82.08,0,0,1,477.46,105.82ZM464.84,82.56c1,1.22,1.91,2.58,2.85,3.9-.8-.06-1.59-.12-2.39-.16-9-.58-18.05-.74-27.08-.81-3,0-6.08.08-9.12.14a69.31,69.31,0,0,0-3-11.65q6.18.13,12.37.18c5.79,0,11.59-.18,17.39-.38A60.35,60.35,0,0,1,464.84,82.56Zm-42.39-23A83.7,83.7,0,0,1,445.13,67c-2.24,0-4.47-.09-6.7-.1q-7.73,0-15.44.28a36.27,36.27,0,0,0-6.52-8.56C418.46,58.89,420.46,59.2,422.45,59.56Zm-74.7,0c2-.36,4-.67,6-.94a36.1,36.1,0,0,0-6.61,8.72c-6.34-.24-12.68-.4-19-.44-1,0-1.93,0-2.9,0A83.73,83.73,0,0,1,347.75,59.56Zm-42.39,23a60,60,0,0,1,8.82-8.63q7,.19,13.91.23c5.37,0,10.74-.16,16.11-.33a68.75,68.75,0,0,0-3.11,11.86q-6.37-.16-12.76-.2c-8.55.06-17.1.23-25.65.74C303.57,85,304.41,83.71,305.36,82.56ZM291.24,273a123.2,123.2,0,0,1-3.3-14.67c4.44.44,8.87.77,13.31,1,9.07.58,18.13.73,27.2.79,3.57,0,7.14-.09,10.71-.17v3.72c0,2.61,0,5.26,0,8q-5.32-.12-10.63-.17c-9.17.07-18.34.22-27.51.8C297.78,272.42,294.51,272.67,291.24,273ZM285.66,229v-8.21c5.22.58,10.45,1,15.67,1.31,9,.58,18,.73,27.05.8,3.59,0,7.19-.1,10.78-.18v11.67q-5.34-.12-10.68-.17c-9.08.07-18.15.22-27.22.8-5.14.3-10.27.71-15.4,1.27C285.77,233.9,285.66,231.52,285.66,229Zm.21-82.56q7.72.84,15.46,1.28c9,.58,18,.73,27.05.8,3.59,0,7.19-.09,10.78-.17V160c-3.59-.08-7.19-.15-10.78-.17-9,.06-18,.22-27.05.79-5.22.31-10.45.73-15.67,1.31V154.4C285.66,151.67,285.78,149.08,285.87,146.46Zm15.45-17.31c9,.58,18,.73,27,.79q5.42,0,10.83-.17v11.67c-3.59-.08-7.19-.14-10.78-.17-9,.07-18,.22-27.05.8-5.12.3-10.25.71-15.37,1.27.28-5.37.83-10.42,1.54-15.29Q294.4,128.76,301.32,129.15Zm0,37.19c9,.57,18,.73,27.05.79,3.59,0,7.19-.09,10.78-.17v11.67c-3.59-.08-7.19-.14-10.78-.17-9,.06-18,.22-27.05.8-5.22.31-10.45.73-15.67,1.3V165Q293.49,165.89,301.33,166.34Zm0,18.59c9,.58,18,.73,27.05.8,3.59,0,7.19-.1,10.78-.18v11.68c-3.59-.08-7.19-.15-10.78-.18-9,.07-18,.23-27.05.8-5.22.31-10.45.73-15.67,1.3V183.63C290.88,184.2,296.11,184.62,301.33,184.93Zm0,18.59c9,.58,18,.74,27.05.8,3.59,0,7.19-.09,10.78-.17v11.67c-3.59-.08-7.19-.14-10.78-.17-9,.06-18,.22-27.05.8q-7.83.45-15.67,1.3V202.22Q293.49,203.08,301.33,203.52Zm-.07,37.19c9.07.58,18.14.74,27.22.8q5.34,0,10.68-.17V253q-5.36-.12-10.71-.17c-9.07.06-18.13.22-27.2.79-4.62.28-9.23.63-13.85,1.1-.68-4.86-1.19-9.92-1.46-15.27Q293.61,240.27,301.26,240.71ZM299.1,91.81l2.22.15c9,.58,18,.73,27,.79q5.91,0,11.81-.18c-.41,3.85-.66,7.77-.79,11.69-3.67-.09-7.34-.14-11-.18-9,.07-18,.22-27,.8-2.83.17-5.65.38-8.47.61A81.83,81.83,0,0,1,299.1,91.81Zm-7.65,18c3.29.29,6.58.54,9.87.73,9,.58,18,.73,27,.8q5.43,0,10.86-.17c0,2.9,0,5.77,0,8.59v3.08q-5.42-.12-10.83-.17c-9,.06-18,.22-27,.79-4.43.27-8.86.6-13.28,1A119.06,119.06,0,0,1,291.45,109.82Zm1.19,167.48c2.81.23,5.61.44,8.41.6,9.17.58,18.34.73,27.51.8q5.38,0,10.77-.17c.12,3.92.35,7.83.74,11.68q-5.79-.13-11.59-.18c-9.24.06-18.47.22-27.71.8-.68,0-1.36.08-2,.13A82.88,82.88,0,0,1,292.64,277.3Zm12.72,23.56c-1.11-1.34-2.12-2.83-3.14-4.3,8.75.5,17.51.67,26.26.73q6.25,0,12.5-.19a71.69,71.69,0,0,0,3,11.84q-7.92-.26-15.84-.32-7.35.06-14.7.26A60.32,60.32,0,0,1,305.36,300.86Zm42.39,23a82.62,82.62,0,0,1-23.91-8c1.42,0,2.84.06,4.26.07q9.34-.08,18.69-.44a36.62,36.62,0,0,0,6.94,9.35C351.74,324.53,349.74,324.22,347.75,323.85Zm37.35,4.21c-15.2,0-24.41-5-30-13a34,34,0,0,1-3.23-5.76,54.19,54.19,0,0,1-3.64-12.52c-.36-2-.65-4.13-.89-6.28-.42-3.94-.64-8-.76-12.24q-.09-3.17-.12-6.39c0-2.73,0-5.47,0-8.22V119.77c0-3,0-5.92,0-8.85q0-3.23.13-6.4c.13-4.2.37-8.3.82-12.24.24-2.15.54-4.24.92-6.27a52.48,52.48,0,0,1,3.81-12.54,32.25,32.25,0,0,1,3.38-5.72c5.63-7.65,14.76-12.39,29.58-12.39S408.91,60,414.56,67.57a33.62,33.62,0,0,1,3.58,6.08,52.43,52.43,0,0,1,3.7,12.19q.6,3.21,1,6.61c.43,3.83.67,7.83.8,11.91q.11,3.33.13,6.72c0,2.88,0,5.78,0,8.69V263.65c0,2.69,0,5.38,0,8.05,0,2.26,0,4.51-.11,6.73-.12,4.07-.34,8.06-.75,11.9-.23,2.27-.54,4.47-.93,6.62a54.25,54.25,0,0,1-3.53,12.17,33.62,33.62,0,0,1-3.43,6.11C409.38,323.14,400.2,328.06,385.1,328.06Zm37.35-4.21c-2,.37-4,.68-6,.95a36.34,36.34,0,0,0,6.86-9.19q7.53.22,15.06.28c2.7,0,5.4-.08,8.1-.13A82.33,82.33,0,0,1,422.45,323.85Zm42.39-23a59.94,59.94,0,0,1-8.22,8.18q-9.12-.35-18.23-.42-6,0-12.08.18a70.53,70.53,0,0,0,2.91-11.64c3,0,6.06.11,9.08.14,9.05-.08,18.09-.23,27.14-.82.91-.05,1.82-.12,2.72-.18C467.09,297.87,466,299.43,464.84,300.86Zm6.47-9.63c-1.95-.14-3.91-.28-5.87-.4-9.05-.57-18.09-.73-27.14-.8-2.72,0-5.44.07-8.16.12.38-3.81.6-7.69.73-11.56,2.47,0,4.95.09,7.42.11,9-.07,17.94-.23,26.92-.81q6.23-.36,12.47-1A82.37,82.37,0,0,1,471.31,291.23Zm7.53-17.91c-4.54-.46-9.09-.81-13.63-1.08-9-.58-17.94-.73-26.92-.81-2.42,0-4.85.07-7.27.11,0-2.66,0-5.3,0-7.89V260c2.42,0,4.83.09,7.25.11,9-.08,17.94-.23,26.92-.82,5.7-.33,11.42-.8,17.12-1.47A121,121,0,0,1,478.84,273.32Z" transform="translate(-13.27 -49.87)"/><path class="cls-1" d="M595.37,439.85c-10.52-.08-21-.24-31.57-.87s-21-1.41-31.57-3c10.52-1.61,21-2.45,31.57-3s21.05-.79,31.57-.87c2.94,0,5.88.09,8.81.13v7.52c-2.93,0-5.87.11-8.81.13" transform="translate(-13.27 -49.87)"/><path class="cls-1" d="M595.37,420c-10.52-.08-21-.24-31.57-.87s-21-1.41-31.57-3c10.52-1.61,21-2.45,31.57-3s21.05-.79,31.57-.87c2.94,0,5.88.09,8.81.13v7.52c-2.93.05-5.87.11-8.81.13" transform="translate(-13.27 -49.87)"/><path class="cls-1" d="M595.37,400.07c-10.52-.08-21-.24-31.57-.86s-21-1.41-31.57-3c10.52-1.6,21-2.44,31.57-3s21.05-.78,31.57-.86c2.94,0,5.88.08,8.81.12V400c-2.93,0-5.87.1-8.81.12" transform="translate(-13.27 -49.87)"/><path class="cls-1" d="M1123.59,391.6c10.52.08,21.05.24,31.57.86s21,1.42,31.57,3c-10.52,1.6-21,2.44-31.57,3s-21.05.78-31.57.86c-2.94,0-5.88-.08-8.81-.12v-7.53c2.93,0,5.87-.1,8.81-.12" transform="translate(-13.27 -49.87)"/><path class="cls-1" d="M1123.59,411.44c10.52.08,21.05.24,31.57.86s21,1.41,31.57,3c-10.52,1.6-21,2.44-31.57,3s-21.05.78-31.57.86c-2.94,0-5.88-.08-8.81-.12v-7.53c2.93,0,5.87-.1,8.81-.12" transform="translate(-13.27 -49.87)"/><path class="cls-1" d="M1123.59,431.37c10.52.08,21.05.25,31.57.87s21,1.41,31.57,3c-10.52,1.61-21,2.45-31.57,3s-21.05.79-31.57.87c-2.94,0-5.88-.08-8.81-.12V431.5c2.93-.05,5.87-.11,8.81-.13" transform="translate(-13.27 -49.87)"/><path class="cls-1" d="M651.89,439.72V432.9l5.07-1.07v-31.5h-7.51l-.3,5.22H640.3V391.28h45.18v14.27h-9l-.27-5.22h-7.58v31.5l5.08,1.07v6.82Z" transform="translate(-13.27 -49.87)"/><path class="cls-1" d="M704.42,439.72V432.9l3.41-.5,14.49-41.12H735l14.52,41.12,3.41.5v6.82H734.78V432.9l3.17-.6L736.48,427H720.85l-1.4,5.26,3.17.6v6.82Zm18.9-20.86H734l-4.74-14.68-.53-1.69h-.2l-.57,1.86Z" transform="translate(-13.27 -49.87)"/><path class="cls-1" d="M800.25,440.42a44.05,44.05,0,0,1-10.55-1.14,28.2,28.2,0,0,1-9.19-4.25V422.45h9l1,6.45a8.3,8.3,0,0,0,3.78,2,20.5,20.5,0,0,0,5.91.81,10.93,10.93,0,0,0,3.74-.55,4.68,4.68,0,0,0,2.27-1.61A4.26,4.26,0,0,0,807,427a4.63,4.63,0,0,0-.71-2.56A7.26,7.26,0,0,0,804,422.3a26.66,26.66,0,0,0-4.4-2.08,67.76,67.76,0,0,1-10.26-4.06,15.83,15.83,0,0,1-6-4.89,12.05,12.05,0,0,1-2-7,11.25,11.25,0,0,1,2.31-7,15.51,15.51,0,0,1,6.34-4.74,24.66,24.66,0,0,1,9.25-1.83,35.48,35.48,0,0,1,10.52,1.18,24.51,24.51,0,0,1,8.08,4v11.68H809.2L807.83,401a14.59,14.59,0,0,0-3.24-1,20.8,20.8,0,0,0-4.48-.47,11.25,11.25,0,0,0-3.62.54,5.46,5.46,0,0,0-2.5,1.59,3.9,3.9,0,0,0-.92,2.66,3.7,3.7,0,0,0,.77,2.32,8.18,8.18,0,0,0,2.7,2A55,55,0,0,0,802,411q8.28,2.43,12.57,6.07a12.31,12.31,0,0,1,4.29,9.9,11.52,11.52,0,0,1-2.34,7.3,14.36,14.36,0,0,1-6.51,4.59A27.19,27.19,0,0,1,800.25,440.42Z" transform="translate(-13.27 -49.87)"/><path class="cls-1" d="M854.73,439.72V432.9l5.08-1.07v-31.5H852.3l-.3,5.22h-8.85V391.28h45.17v14.27h-9l-.26-5.22h-7.58v31.5l5.07,1.07v6.82Z" transform="translate(-13.27 -49.87)"/><path class="cls-1" d="M914,439.72V432.9l5-1.07V399.19l-5-1.06v-6.85h21.77v6.85l-5,1.06v32.64l5,1.07v6.82Z" transform="translate(-13.27 -49.87)"/><path class="cls-1" d="M961,439.72V432.9l5-1.07V399.19l-5-1.06v-6.85H977.9l19.5,31h.2V399.19l-6.38-1.06v-6.85H1013v6.85l-5,1.06v40.53H996.43l-19.87-30.35h-.2v22.46l6.41,1.07v6.82Z" transform="translate(-13.27 -49.87)"/><path class="cls-1" d="M1059,440.42a25.79,25.79,0,0,1-12.77-2.93,19.65,19.65,0,0,1-8-8.14,25.59,25.59,0,0,1-2.73-12.06V415.1a28.7,28.7,0,0,1,2.7-12.75,20.41,20.41,0,0,1,7.85-8.65,23.52,23.52,0,0,1,12.42-3.12,34.29,34.29,0,0,1,10,1.51,24.06,24.06,0,0,1,8.82,4.78v11.34H1069l-1.77-6.15a8.51,8.51,0,0,0-3.22-1.93,13.57,13.57,0,0,0-4.69-.77,11,11,0,0,0-6.71,2,11.81,11.81,0,0,0-4.06,5.51,22.81,22.81,0,0,0-1.35,8.18v2.26a18.91,18.91,0,0,0,1.41,7.62,11.09,11.09,0,0,0,4.16,5,12.2,12.2,0,0,0,6.75,1.77,20.23,20.23,0,0,0,4.17-.44,16.48,16.48,0,0,0,3.24-1V424l-5.48-.66V415.3h17.23v20.09a29.55,29.55,0,0,1-8.9,3.78A43.93,43.93,0,0,1,1059,440.42Z" transform="translate(-13.27 -49.87)"/></svg>