<svg id="Ebene_1" data-name="Ebene 1" xmlns="http://www.w3.org/2000/svg" viewBox="0 0 850.39 850.39"><defs><style>.cls-1{fill:#f2eded;}</style></defs><path class="cls-1" d="M543,435.46c0,9.68,0,18.85,5.19,22.82-1.76-4.84-1.77-11.39-1.77-18.18V345.66a5,5,0,0,0-3.42-4.74Z"/><path class="cls-1" d="M554.16,465.08a9.89,9.89,0,0,1-1.69-1,4.18,4.18,0,0,1-4.08,3.28H502.2a3,3,0,0,0,3.16,3.5h47.42a3.17,3.17,0,0,0,3.13-2.32,3,3,0,0,0-1.75-3.5"/><path class="cls-1" d="M549.14,463.22a.75.75,0,0,1-.75.76H500.63a.76.76,0,0,1-.75-.76.74.74,0,0,1,.46-.69c9.09-4,9.09-15.53,9.09-27.07V366.8c0-11.55,0-23.08-9.09-27.07a.76.76,0,0,1-.46-.7.75.75,0,0,1,.75-.75h39v97.18c0,11.54,0,23.08,9.09,27.07a.74.74,0,0,1,.46.69"/><path class="cls-1" d="M492.94,371.46l.62,4H461.67v1.22a2.29,2.29,0,0,0,2.29,2.28h30.17a2.28,2.28,0,0,0,2.25-2.63c-1.4-9-4.43-16.3-9-21.89a50.59,50.59,0,0,1,5.59,17.07"/><path class="cls-1" d="M433.73,455.37c-1.57-4.47-1.75-10.63-1.75-18.17V373.89c0-16.34,1-26.26,14.86-26.26a18.79,18.79,0,0,1,6,.86c-2-2.84-5.22-4.36-10.52-4.36-13.07,0-13.71,9.08-13.71,25.12v63.31c0,11.35.34,19.18,5.17,22.81"/><path class="cls-1" d="M494.06,404.49h-1.14v16.86C492,446.89,481.24,461.88,461,466v0l-1.05.2a97.67,97.67,0,0,1-17.68,1.16,97,97,0,0,1-17.76-1.18,41.59,41.59,0,0,1-13.87-5.06c4.87,4.31,11.06,7.17,18.65,8.58a96.09,96.09,0,0,0,17.55,1.16,96.73,96.73,0,0,0,17.46-1.14l.64-.12h0c20.17-4,30.44-18.22,31.38-43.64V406.77a2.28,2.28,0,0,0-2.28-2.28"/><path class="cls-1" d="M450.53,402.13h39v19.22c-1.11,29.94-15.73,38.84-30.1,41.5,0,0-.05,0-.06,0A94.07,94.07,0,0,1,442.27,464a93.22,93.22,0,0,1-17.13-1.13c-15-2.77-30.17-12.3-30.17-45.19V384.6c0-32.89,15.21-42.43,30.17-45.2a93.22,93.22,0,0,1,17.13-1.13,94.37,94.37,0,0,1,17.12,1.12C472.5,341.71,486,349,489.56,372H459.39v-2.74c0-14.27,0-28.54-17.12-28.54S425.14,355,425.14,369.25v63.31c0,14.27,0,28.52,17.13,28.52,14.45,0,16.7-10.14,17.06-21.89v-8.53c0-11.55,0-23.08-9.08-27.08a.73.73,0,0,1-.47-.69.76.76,0,0,1,.75-.76"/><path class="cls-1" d="M631.83,348.49c-2-2.84-5.23-4.36-10.53-4.36-13.06,0-13.7,9.08-13.7,25.12v66.21c0,9.68,0,18.85,5.2,22.82C611,453.44,611,446.89,611,440.1V373.89c0-16.34,1-26.26,14.84-26.26a18.82,18.82,0,0,1,6,.86"/><path class="cls-1" d="M665,353.26c4.69,7.91,7.08,18.35,7.08,31.34v50.86c0,9.67,0,18.85,5.19,22.82-1.76-4.84-1.77-11.39-1.77-18.18V389.24c0-16-3.47-28-10.5-36"/><path class="cls-1" d="M618.75,465.08a10.38,10.38,0,0,1-1.7-1A4.18,4.18,0,0,1,613,467.4H566.82a2.44,2.44,0,0,0-.07.46,3,3,0,0,0,3,3h47.75a3,3,0,0,0,3-3,3,3,0,0,0-1.83-2.78"/><path class="cls-1" d="M683.17,465.08a9.89,9.89,0,0,1-1.69-1,4.18,4.18,0,0,1-4.08,3.28H631.24a2.44,2.44,0,0,0-.07.46,3,3,0,0,0,3,3H682a3,3,0,0,0,3-3,3,3,0,0,0-1.83-2.78"/><path class="cls-1" d="M678.15,463.22a.75.75,0,0,1-.75.76H629.64a.75.75,0,0,1-.75-.76.74.74,0,0,1,.46-.69c9.09-4,9.09-15.53,9.09-27.07V369.25c0-14.27,0-28.54-17.14-28.54S604.18,355,604.18,369.25v66.21c0,11.54,0,23.08,9.08,27.07a.73.73,0,0,1,.47.69.76.76,0,0,1-.76.76H565.22a.76.76,0,0,1-.76-.76.74.74,0,0,1,.47-.69c9.08-4,9.08-15.53,9.08-27.07V366.8c0-11.55,0-23.08-9.08-27.07a.77.77,0,0,1-.47-.7.75.75,0,0,1,.76-.75H621.3a94.14,94.14,0,0,1,17.14,1.12c15,2.77,30.16,12.31,30.16,45.2v50.86c0,11.54,0,23.08,9.09,27.07a.74.74,0,0,1,.46.69"/><path class="cls-1" d="M208.14,340.63V433c0,11.45.35,19.33,5.29,22.91-1.63-4.47-1.87-10.66-1.87-18.27V344.06a3.43,3.43,0,0,0-3.42-3.43"/><path class="cls-1" d="M272.55,432.86V467.4H167.32a3,3,0,0,0,3.16,3.5H276V437.44a4.79,4.79,0,0,0-3.42-4.58"/><path class="cls-1" d="M265.9,437.51c-2.66-.32-5.32-.54-8-.7-4-.25-8-.32-12.06-.35l-3.68.05c0-1,0-2,0-3H265.9Zm0,8.24c-2.66-.32-5.32-.54-8-.7-4-.25-8-.32-12.06-.35-1.35,0-2.71,0-4.06.06.17-1.7.26-3.42.32-5.14,1.25,0,2.49.05,3.74.06,4,0,8-.1,12.06-.36,2.66-.16,5.32-.38,8-.69Zm0,8.23c-2.66-.31-5.32-.53-8-.69-4-.25-8-.32-12.06-.35-1.93,0-3.85,0-5.78.08a32.31,32.31,0,0,0,1.3-5.17c1.49,0,3,.06,4.48.06,4,0,8-.09,12.06-.35,2.66-.16,5.32-.38,8-.69Zm0,6.78H235a15.75,15.75,0,0,0,3.76-4.75q3.55.12,7.09.15c4,0,8-.1,12.06-.36,2.66-.16,5.32-.38,8-.69Zm-93,0a19.19,19.19,0,0,0,3-5.82c3.11.41,6.22.68,9.32.86,4,.26,8,.33,12,.36,2.57,0,5.14-.09,7.72-.18a15.51,15.51,0,0,0,3.78,4.78Zm0-119.26h28.65v4.39c-1.43,0-2.87-.06-4.31-.07-4,0-8,.1-12,.35-3.13.19-6.27.46-9.41.88a19.21,19.21,0,0,0-2.91-5.55m24.34,95c-4,0-8,.09-12,.35-2.46.14-4.93.35-7.39.63v-7c2.47.28,4.93.48,7.39.62,4,.26,8,.33,12,.36l4.31-.07V433c0,1.15,0,2.33,0,3.52-1.45,0-2.89-.06-4.33-.07m4.72,8.31c-1.58,0-3.15-.06-4.72-.07-4,0-8,.09-12,.35-2.54.15-5.09.36-7.64.66.17-2.32.22-4.68.24-7,2.47.29,4.94.49,7.4.63,4,.26,8,.33,12,.36l4.39-.07c.06,1.73.15,3.46.33,5.16m-24.49,2.12c2.59.31,5.17.52,7.75.67,4,.26,8,.33,12,.35,1.71,0,3.42,0,5.13-.07a31.15,31.15,0,0,0,1.31,5.22q-3.23-.1-6.44-.12c-4,0-8,.09-12,.35-3,.18-6,.43-9.06.83a38.56,38.56,0,0,0,1.31-7.23m19.77-92.83c-4,0-8,.1-12,.35-2.59.16-5.18.37-7.78.68a37.08,37.08,0,0,0-1.38-7.25c3.06.41,6.11.66,9.16.84,4,.26,8,.33,12,.36,1.44,0,2.88,0,4.31-.07v5.16c-1.43,0-2.87-.06-4.31-.07m0,8.24c-4,0-8,.1-12,.35-2.46.15-4.93.35-7.4.63,0-2.34-.09-4.7-.27-7q3.84.45,7.67.67c4,.25,8,.32,12,.35,1.44,0,2.88,0,4.31-.07v5.16c-1.43,0-2.87-.06-4.31-.07m0,8.24c-4,0-8,.1-12,.35-2.46.15-4.92.35-7.39.63v-7c2.46.28,4.93.48,7.39.62,4,.26,8,.33,12,.36,1.44,0,2.88,0,4.31-.07v5.16c-1.43,0-2.87-.06-4.31-.07m0,8.24c-4,0-8,.1-12,.35-2.46.15-4.92.35-7.39.63v-7c2.47.28,4.93.48,7.39.63,4,.25,8,.32,12,.35,1.44,0,2.88,0,4.31-.07v5.16c-1.43,0-2.87-.06-4.31-.07m0,8.24c-4,0-8,.1-12,.35-2.46.15-4.92.35-7.39.63v-7c2.47.28,4.93.48,7.39.62,4,.26,8,.33,12,.36,1.44,0,2.88,0,4.31-.07v5.16c-1.43,0-2.87-.06-4.31-.07m0,8.24c-4,0-8,.09-12,.35-2.46.15-4.92.35-7.39.63v-7c2.47.28,4.93.48,7.39.62,4,.26,8,.33,12,.36,1.44,0,2.88,0,4.31-.07v5.16c-1.43,0-2.87-.06-4.31-.07m0,8.24c-4,0-8,.09-12,.35-2.46.15-4.92.35-7.39.63v-7c2.47.28,4.93.48,7.39.62,4,.26,8,.33,12,.36,1.44,0,2.88,0,4.31-.07v5.16c-1.43,0-2.87-.06-4.31-.07m0,8.24c-4,0-8,.09-12,.35-2.46.15-4.92.35-7.39.63v-7c2.47.28,4.93.48,7.39.63,4,.25,8,.32,12,.35,1.44,0,2.88,0,4.31-.07v5.16c-1.43,0-2.87-.06-4.31-.07m4.31,11.39v5.16c-1.43,0-2.87-.06-4.31-.07-4,0-8,.09-12,.35-2.46.15-4.92.35-7.39.63v-7c2.47.28,4.93.48,7.39.62,4,.26,8,.33,12,.36l4.31-.07M197.18,420c-4,0-8,.09-12,.35-2.46.15-4.92.35-7.39.63v-7c2.47.28,4.93.48,7.39.63,4,.25,8,.32,12,.35l4.31-.07v5.16c-1.43,0-2.87-.06-4.31-.07m69.45,10.29H239V433c0,1.2,0,2.4,0,3.59,0,1,0,2-.05,2.93,0,1.83-.15,3.61-.33,5.32-.11,1-.24,2-.41,2.89a23.77,23.77,0,0,1-1.58,5.44,15.38,15.38,0,0,1-1.49,2.67c-2.49,3.51-6.56,5.7-13.26,5.7s-10.79-2.21-13.28-5.74a15.53,15.53,0,0,1-1.45-2.59,24.38,24.38,0,0,1-1.6-5.51q-.24-1.38-.39-2.82c-.19-1.74-.29-3.54-.34-5.39,0-.95,0-1.91-.05-2.87,0-1.2,0-2.41,0-3.62V338.28h-39a.75.75,0,0,0-.76.75.74.74,0,0,0,.47.7c6.06,2.66,8.07,8.68,8.74,15.82,0,.08,0,.16,0,.24.23,2.55.29,5.23.31,7.95v.34c0,.9,0,1.81,0,2.72v71.1c0,.11,0,.22,0,.34,0,2.71-.06,5.39-.28,7.94l0,.25c-.64,7.26-2.63,13.4-8.76,16.1a.73.73,0,0,0-.47.69.76.76,0,0,0,.76.76H269.12V430.27Z"/><path class="cls-1" d="M321.35,455.92c-1.63-4.47-1.87-10.66-1.87-18.27V373.89c0-16.34,1-26.26,14.86-26.26a18.93,18.93,0,0,1,6,.86c-2-2.84-5.23-4.36-10.54-4.36-13.07,0-13.71,9.08-13.71,25.12V433c0,11.45.35,19.32,5.29,22.91"/><path class="cls-1" d="M373.41,353.25c4.68,7.91,7.07,18.36,7.07,31.35v33.06c0,28.17-11.08,44.51-33,48.56a96.93,96.93,0,0,1-17.76,1.18A97,97,0,0,1,312,466.22a41.69,41.69,0,0,1-13.85-5.05c4.86,4.3,11,7.16,18.63,8.57a96.09,96.09,0,0,0,17.55,1.16,96.09,96.09,0,0,0,17.55-1.16c21.54-4,32-19.51,32-47.44V389.24c0-16-3.48-28-10.5-36"/><path class="cls-1" d="M377,380.4v0a77.75,77.75,0,0,0-.74-8.1c0-.08,0-.17,0-.25a59.74,59.74,0,0,0-1.66-7.73c-.09-.27-.17-.53-.25-.8a41.24,41.24,0,0,0-2.89-7.06c-.29-.55-.59-1.09-.9-1.61a31.54,31.54,0,0,0-4.77-6.17,29.51,29.51,0,0,0-2.94-2.58,36.44,36.44,0,0,0-15.86-6.67,94.09,94.09,0,0,0-17.14-1.12,94,94,0,0,0-17.13,1.12A36.69,36.69,0,0,0,296.88,346a29.42,29.42,0,0,0-3.12,2.74,31.21,31.21,0,0,0-4.6,5.94c-.37.61-.73,1.24-1.08,1.9a42.39,42.39,0,0,0-2.74,6.72c-.12.39-.25.79-.37,1.2a58,58,0,0,0-1.57,7.28c0,.25-.07.49-.11.74q-.51,3.56-.69,7.62l0,.51c-.05,1.28-.08,2.59-.08,4v33.06c0,1.26,0,2.48.07,3.68,0,.17,0,.33,0,.5.12,2.71.34,5.26.67,7.63,0,.25.07.49.11.73a58.83,58.83,0,0,0,1.54,7.3c.11.4.23.79.35,1.18a42,42,0,0,0,2.7,6.73c.33.65.67,1.28,1,1.88a31.79,31.79,0,0,0,4.51,6,30.24,30.24,0,0,0,3,2.72,36.31,36.31,0,0,0,16.16,6.88A93.17,93.17,0,0,0,329.77,464a93.27,93.27,0,0,0,17.14-1.13,36.33,36.33,0,0,0,16.25-7,28.93,28.93,0,0,0,2.8-2.55,31.41,31.41,0,0,0,4.69-6.2c.3-.51.59-1,.87-1.58a42.07,42.07,0,0,0,2.84-7.09c.08-.25.15-.51.23-.77a57.34,57.34,0,0,0,1.63-7.75c0-.08,0-.16,0-.24a78.26,78.26,0,0,0,.71-8.11v0c0-1.27.09-2.56.09-3.91V384.6C377.06,383.15,377,381.76,377,380.4Zm-3.21,40.68c-2.82-.35-5.64-.58-8.46-.75-4-.25-8-.32-12-.35l-3.16,0v-5.12l3.16,0c4,0,8-.1,12-.36,2.85-.17,5.7-.4,8.55-.76v3.82C373.84,418.84,373.79,420,373.75,421.08Zm-8.48,7.49c-4-.25-7.95-.32-11.93-.35l-3.21,0v-5.12l3.16.05c4,0,8-.1,12-.36,2.81-.17,5.62-.4,8.43-.75-.12,2.52-.36,4.89-.68,7.16C370.45,428.94,367.86,428.73,365.27,428.57Zm6-63.87a52.83,52.83,0,0,1,1.58,6.84c-2.51-.29-5-.5-7.52-.64-4-.26-8-.33-12-.36l-3.16,0v-1.34c0-1.24,0-2.5,0-3.78l3.2,0c4,0,8-.1,12-.36C367.28,365,369.25,364.9,371.23,364.7Zm-21.1,9,3.16.05c4,0,8-.1,12-.36,2.57-.15,5.14-.36,7.71-.66.33,2.26.58,4.63.71,7.14-2.81-.35-5.62-.58-8.42-.74-4-.26-8-.33-12-.36l-3.16.05Zm15.16,38.38c-4-.25-8-.32-12-.35l-3.16.05v-5.12l3.16.05c4,0,8-.1,12-.36,2.85-.17,5.7-.4,8.55-.76v7.25C371,412.5,368.14,412.26,365.29,412.09Zm0-8.24c-4-.25-8-.32-12-.35l-3.16.05v-5.12l3.16.05c4,0,8-.1,12-.36,2.85-.17,5.7-.4,8.55-.76v7.25C371,404.26,368.14,404,365.29,403.85Zm0-8.23c-4-.26-8-.33-12-.36l-3.16.05v-5.12l3.16.05c4,0,8-.1,12-.36,2.85-.17,5.7-.4,8.55-.76v7.25C371,396,368.14,395.78,365.29,395.62Zm0-8.24c-4-.26-8-.33-12-.36l-3.16.05V382l3.16.05c4,0,8-.1,12-.36,2.81-.17,5.63-.4,8.45-.75.05,1.22.1,2.43.1,3.71v3.53C371,387.78,368.14,387.55,365.29,387.38Zm5.41-24.31c-1.8-.17-3.59-.31-5.39-.41-4-.26-8-.33-12-.36l-3.27.05c-.06-1.72-.16-3.44-.34-5.13l3.61.06c4,0,8-.1,12-.36l2.51-.17A36.63,36.63,0,0,1,370.7,363.07Zm-5.59-10.31c.45.54.84,1.14,1.26,1.73l-1.06-.07c-4-.26-8-.33-12-.36-1.35,0-2.69,0-4,.06a30.26,30.26,0,0,0-1.35-5.16c1.83,0,3.66.07,5.48.08q3.86,0,7.71-.17A26.74,26.74,0,0,1,365.11,352.76Zm-18.79-10.19a37.19,37.19,0,0,1,10.05,3.29l-3,0c-2.28,0-4.56.06-6.84.13a15.72,15.72,0,0,0-2.89-3.8C344.56,342.27,345.44,342.41,346.32,342.57Zm-33.1,0c.88-.16,1.77-.3,2.65-.42a16.05,16.05,0,0,0-2.93,3.87q-4.21-.16-8.43-.2l-1.29,0A37.05,37.05,0,0,1,313.22,342.57Zm-18.78,10.19a26.56,26.56,0,0,1,3.9-3.82q3.09.07,6.17.1,3.57,0,7.14-.15a30.28,30.28,0,0,0-1.38,5.26c-1.88,0-3.77-.08-5.65-.09-3.79,0-7.58.1-11.37.33C293.64,353.84,294,353.27,294.44,352.76Zm-6.26,84.37a54,54,0,0,1-1.46-6.5q2.94.28,5.9.45c4,.26,8,.33,12.05.36,1.58,0,3.16,0,4.75-.08V433c0,1.15,0,2.33,0,3.52-1.57,0-3.14-.06-4.71-.07-4.07,0-8.13.09-12.19.35C291.08,436.89,289.63,437,288.18,437.13Zm-2.47-19.47V414c2.31.25,4.63.44,6.94.57,4,.26,8,.33,12,.36,1.59,0,3.18,0,4.78-.08v5.17c-1.58,0-3.16-.06-4.74-.07-4,0-8,.09-12.06.35-2.28.13-4.55.32-6.83.56C285.76,419.82,285.71,418.77,285.71,417.66Zm.09-36.58c2.28.25,4.57.43,6.85.56,4,.26,8,.33,12,.36,1.59,0,3.18,0,4.78-.08v5.17c-1.6,0-3.19-.06-4.78-.07-4,0-8,.1-12,.35-2.31.14-4.63.32-6.94.58V384.6C285.71,383.39,285.76,382.24,285.8,381.08Zm6.85-7.68c4,.26,8,.33,12,.36,1.6,0,3.2,0,4.8-.08v5.17c-1.6,0-3.19-.06-4.78-.07-4,0-8,.1-12,.35-2.27.14-4.54.32-6.81.56.12-2.38.37-4.61.68-6.77C288.56,373.13,290.61,373.28,292.65,373.4Zm0,16.48c4,.26,8,.33,12,.36,1.59,0,3.18,0,4.78-.08v5.17c-1.6,0-3.19-.06-4.78-.07-4,0-8,.1-12,.35-2.31.14-4.63.32-6.94.58v-6.88C288,389.56,290.34,389.75,292.65,389.88Zm0,8.24c4,.26,8,.33,12,.36,1.59,0,3.18,0,4.78-.08v5.17c-1.6,0-3.19-.06-4.78-.07-4,0-8,.1-12,.35-2.31.14-4.63.32-6.94.58v-6.88C288,397.8,290.34,398,292.65,398.12Zm0,8.24c4,.26,8,.33,12,.36,1.59,0,3.18,0,4.78-.08v5.17c-1.6,0-3.19-.06-4.78-.07-4,0-8,.09-12,.35-2.31.14-4.63.32-6.94.58v-6.88C288,406,290.34,406.23,292.65,406.36Zm0,16.48c4,.26,8,.33,12.06.36,1.58,0,3.16,0,4.74-.08v5.17c-1.59,0-3.17-.06-4.75-.07-4,0-8,.1-12.05.35q-3.08.18-6.14.48c-.3-2.15-.53-4.39-.65-6.76C288.09,422.53,290.36,422.71,292.62,422.84Zm-1-66,1,.07c4,.25,8,.32,12,.35,1.74,0,3.49,0,5.23-.09-.18,1.71-.29,3.45-.35,5.19-1.63,0-3.26-.07-4.88-.08-4,0-8,.1-12,.35-1.26.08-2.51.17-3.76.27A36.66,36.66,0,0,1,291.66,356.86Zm-3.39,8q2.19.2,4.38.33c4,.25,8,.32,12,.35,1.6,0,3.2,0,4.81-.08,0,1.29,0,2.56,0,3.81v1.36c-1.6,0-3.2-.06-4.8-.07-4,0-8,.1-12,.35-2,.12-3.93.26-5.89.46A53.65,53.65,0,0,1,288.27,364.84Zm.53,74.22c1.24.1,2.49.19,3.73.26,4.06.26,8.12.33,12.19.36,1.59,0,3.18,0,4.77-.08.06,1.74.16,3.47.33,5.18-1.71,0-3.42-.07-5.14-.08-4.09,0-8.18.09-12.28.35l-.9.06A37.17,37.17,0,0,1,288.8,439.06Zm5.64,10.44c-.5-.6-.94-1.26-1.39-1.91,3.87.22,7.75.3,11.63.32,1.85,0,3.69,0,5.54-.08a32.25,32.25,0,0,0,1.31,5.25c-2.34-.08-4.68-.12-7-.14q-3.25,0-6.51.11A27.14,27.14,0,0,1,294.44,449.5Zm18.78,10.19a36.75,36.75,0,0,1-10.59-3.56l1.88,0c2.76,0,5.52-.09,8.28-.2a16.3,16.3,0,0,0,3.08,4.14C315,460,314.1,459.85,313.22,459.69Zm16.55,1.86c-6.74,0-10.82-2.21-13.3-5.76a15.47,15.47,0,0,1-1.43-2.56,23.85,23.85,0,0,1-1.61-5.54c-.16-.9-.29-1.83-.39-2.78-.19-1.75-.29-3.57-.34-5.43,0-.93,0-1.88-.05-2.83,0-1.21,0-2.42,0-3.64V369.25c0-1.31,0-2.62,0-3.92,0-1,0-1.9.06-2.84.05-1.86.16-3.68.36-5.42.11-.95.24-1.88.41-2.78a23.13,23.13,0,0,1,1.69-5.56,15.15,15.15,0,0,1,1.49-2.53c2.5-3.39,6.55-5.49,13.11-5.49s10.55,2.06,13.06,5.41a14.62,14.62,0,0,1,1.58,2.69,22.85,22.85,0,0,1,1.64,5.4c.18,1,.32,1.93.43,2.93.19,1.7.3,3.47.36,5.28,0,1,.05,2,.05,3,0,1.28,0,2.56,0,3.85V433c0,1.19,0,2.38,0,3.57,0,1,0,2,0,3-.06,1.8-.16,3.57-.33,5.27-.11,1-.25,2-.42,2.93a24.45,24.45,0,0,1-1.56,5.4,15.88,15.88,0,0,1-1.52,2.71C340.53,459.37,336.46,461.55,329.77,461.55Zm16.55-1.86c-.88.16-1.76.3-2.65.41a15.74,15.74,0,0,0,3-4.07c2.23.07,4.45.11,6.68.13l3.59-.06A36.53,36.53,0,0,1,346.32,459.69Zm18.79-10.19a26.56,26.56,0,0,1-3.65,3.62q-4-.15-8.07-.18c-1.79,0-3.57,0-5.36.08a31.41,31.41,0,0,0,1.29-5.16l4,.06c4,0,8-.1,12-.36l1.21-.08C366.1,448.17,365.63,448.87,365.11,449.5Zm2.87-4.27-2.61-.18c-4-.25-8-.32-12-.35l-3.62.05c.17-1.69.27-3.41.32-5.12l3.29.05c4,0,8-.1,11.93-.36,1.84-.11,3.68-.25,5.53-.43A37.16,37.16,0,0,1,368,445.23Zm3.33-7.94c-2-.2-4-.35-6-.48-4-.25-7.95-.32-11.93-.35l-3.22.05c0-1.19,0-2.36,0-3.5v-1.62l3.21.05c4,0,8-.1,11.93-.36,2.53-.15,5.06-.36,7.59-.65A55.35,55.35,0,0,1,371.31,437.29Z"/><path class="cls-1" d="M423,511.09c-4.66,0-9.33-.11-14-.39s-9.33-.62-14-1.34c4.66-.71,9.33-1.08,14-1.34s9.33-.34,14-.38l3.9.06V511l-3.9.06"/><path class="cls-1" d="M423,502.29c-4.66,0-9.33-.1-14-.38s-9.33-.62-14-1.34c4.66-.71,9.33-1.08,14-1.34s9.33-.35,14-.38l3.9,0v3.34c-1.3,0-2.6.05-3.9.05"/><path class="cls-1" d="M423,493.46c-4.66,0-9.33-.11-14-.38s-9.33-.63-14-1.34c4.66-.71,9.33-1.09,14-1.34s9.33-.35,14-.38c1.3,0,2.6,0,3.9.05v3.34l-3.9,0"/><path class="cls-1" d="M657,489.71c4.66,0,9.33.1,14,.38s9.33.63,14,1.34c-4.66.71-9.33,1.08-14,1.34s-9.33.35-14,.38l-3.9,0v-3.34c1.3,0,2.6-.05,3.9-.05"/><path class="cls-1" d="M657,498.5c4.66,0,9.33.1,14,.38s9.33.63,14,1.34c-4.66.71-9.33,1.08-14,1.34s-9.33.35-14,.38l-3.9-.05v-3.34l3.9-.05"/><path class="cls-1" d="M657,507.33c4.66,0,9.33.11,14,.38s9.33.63,14,1.34c-4.66.72-9.33,1.09-14,1.34s-9.33.35-14,.39l-3.9-.06v-3.33l3.9-.06"/><path class="cls-1" d="M448,511v-3l2.25-.48v-14h-3.33l-.13,2.32h-3.92v-6.33h20v6.33h-4l-.12-2.32h-3.35v14l2.25.48v3Z"/><path class="cls-1" d="M471.27,511v-3l1.51-.23,6.43-18.22h5.62l6.43,18.22,1.51.23v3h-8v-3l1.41-.27-.65-2.33h-6.93l-.62,2.33,1.41.27v3Zm8.38-9.25h4.72l-2.1-6.5-.24-.75h-.09l-.25.83Z"/><path class="cls-1" d="M513.74,511.34a19.93,19.93,0,0,1-4.68-.5A12.74,12.74,0,0,1,505,509v-5.57h4l.45,2.86a3.63,3.63,0,0,0,1.67.89,9.07,9.07,0,0,0,2.62.36,4.88,4.88,0,0,0,1.65-.24,2.09,2.09,0,0,0,1-.72,1.85,1.85,0,0,0,.34-1.13,2.1,2.1,0,0,0-.32-1.14,3.25,3.25,0,0,0-1-.95,11.66,11.66,0,0,0-2-.92,30.32,30.32,0,0,1-4.55-1.8,7,7,0,0,1-2.64-2.17,5.38,5.38,0,0,1-.86-3.11,5,5,0,0,1,1-3.12,6.83,6.83,0,0,1,2.81-2.1,10.89,10.89,0,0,1,4.1-.81,15.56,15.56,0,0,1,4.66.53,10.6,10.6,0,0,1,3.58,1.76v5.17H517.7l-.6-2.87a6.61,6.61,0,0,0-1.44-.46,9,9,0,0,0-2-.21,5,5,0,0,0-1.61.24,2.43,2.43,0,0,0-1.11.71,1.74,1.74,0,0,0-.4,1.18,1.63,1.63,0,0,0,.34,1,3.49,3.49,0,0,0,1.19.9,24.32,24.32,0,0,0,2.4,1,15.21,15.21,0,0,1,5.57,2.69,5.46,5.46,0,0,1,1.9,4.39,5.12,5.12,0,0,1-1,3.23,6.43,6.43,0,0,1-2.89,2A12.27,12.27,0,0,1,513.74,511.34Z"/><path class="cls-1" d="M537.88,511v-3l2.25-.48v-14H536.8l-.13,2.32h-3.92v-6.33h20v6.33h-4l-.12-2.32h-3.36v14l2.25.48v3Z"/><path class="cls-1" d="M564.14,511v-3l2.24-.48V493.07l-2.24-.47v-3h9.65v3l-2.24.47v14.46l2.24.48v3Z"/><path class="cls-1" d="M585,511v-3l2.22-.48V493.07L585,492.6v-3h7.5l8.64,13.74h.09V493.07l-2.83-.47v-3H608v3l-2.23.47v18h-5.12l-8.8-13.45h-.09v9.95l2.84.48v3Z"/><path class="cls-1" d="M628.41,511.34a11.39,11.39,0,0,1-5.66-1.3,8.74,8.74,0,0,1-3.53-3.6,11.32,11.32,0,0,1-1.21-5.35v-1a12.69,12.69,0,0,1,1.2-5.65,9,9,0,0,1,3.48-3.83,10.4,10.4,0,0,1,5.5-1.39,15.45,15.45,0,0,1,4.42.67,10.75,10.75,0,0,1,3.91,2.12v5h-3.7l-.78-2.73a3.91,3.91,0,0,0-1.43-.86,6.18,6.18,0,0,0-2.08-.33,4.9,4.9,0,0,0-3,.87,5.31,5.31,0,0,0-1.8,2.44,10.08,10.08,0,0,0-.6,3.63v1a8.36,8.36,0,0,0,.63,3.38,4.9,4.9,0,0,0,1.84,2.21,5.41,5.41,0,0,0,3,.78,8.87,8.87,0,0,0,1.85-.19,6.89,6.89,0,0,0,1.43-.43v-2.77l-2.42-.3v-3.56h7.63v8.9a13.17,13.17,0,0,1-3.94,1.68A19.92,19.92,0,0,1,628.41,511.34Z"/></svg>