<svg xmlns="http://www.w3.org/2000/svg" xmlns:xlink="http://www.w3.org/1999/xlink" viewBox="0 0 267.48 89.84"><defs><style>.cls-1{fill:url(#Unbenannter_Verlauf_2);}.cls-2{isolation:isolate;}.cls-3{mask:url(#mask);}.cls-4{mix-blend-mode:multiply;}.cls-5{fill:#4b4d53;}.cls-6{fill:#ded8cd;}.cls-7{fill:#2b3044;}.cls-8{fill:#a3a6ac;}.cls-9{filter:url(#luminosity-noclip);}</style><linearGradient id="Unbenannter_Verlauf_2" x1="-385.92" y1="585.86" x2="-384.23" y2="585.86" gradientTransform="matrix(37.38, 0, 0, -37.38, 14647.73, 21958.21)" gradientUnits="userSpaceOnUse"><stop offset="0" stop-color="#595959"/><stop offset="0.24" stop-color="#bfbfbf"/><stop offset="0.64" stop-color="#333"/><stop offset="0.82" stop-color="#b3b3b3"/><stop offset="1" stop-color="gray"/></linearGradient><filter id="luminosity-noclip" x="-23.78" y="-75.05" width="372.12" height="261.56" filterUnits="userSpaceOnUse" color-interpolation-filters="sRGB"><feFlood flood-color="#fff" result="bg"/><feBlend in="SourceGraphic" in2="bg"/></filter><mask id="mask" x="-40.99" y="-89.21" width="372.12" height="261.56" maskUnits="userSpaceOnUse"><g class="cls-9"><g transform="translate(-17.21 -14.16)"><rect class="cls-1" x="-6.24" y="-35.77" width="337.03" height="183" transform="translate(-8.79 42.41) rotate(-14.5)"/></g></g></mask></defs><g class="cls-2"><g id="Ebene_1" data-name="Ebene 1"><g class="cls-3"><g class="cls-4"><path class="cls-5" d="M239.66,27.74,248,60.11c1,4,1.88,6.74,3.95,7.55a20.5,20.5,0,0,1-2.31-6.23l-8.49-32.8a1.25,1.25,0,0,0-1.52-.89" transform="translate(-17.21 -14.16)"/><path class="cls-5" d="M270.81,54.16,274,66.27,236.71,75.9a1,1,0,0,0,.12.41,1.15,1.15,0,0,0,1.31.53l37.33-9.66-3-11.72a1.75,1.75,0,0,0-1.63-1.3" transform="translate(-17.21 -14.16)"/><path class="cls-5" d="M268.48,53.8l-9.78,2.53.09.36.16.6c.1.42.21.84.32,1.26s.17.69.24,1c.15.65.28,1.28.37,1.9q.08.52.12,1.05a8.67,8.67,0,0,1-.07,2,5.45,5.45,0,0,1-.29,1.07c-.56,1.46-1.8,2.6-4.17,3.21s-4,.21-5.22-.8a5.47,5.47,0,0,1-.75-.77,8.46,8.46,0,0,1-1.06-1.79c-.14-.3-.28-.62-.4-1-.22-.59-.42-1.21-.61-1.85-.09-.34-.19-.67-.28-1l-.33-1.26-.16-.61-.26-1-.48-1.88-.26-1L245.17,54l-.26-1-.49-1.88-.26-1-.48-1.88-.26-1-.49-1.88-.26-1-.49-1.88-.26-1-.48-1.88-.26-1-.49-1.88-.26-1-.49-1.88-.26-1-.48-1.88-.26-1-.7-2.7L224.45,30.8a.27.27,0,0,0,0,.53c2.38.38,3.64,2.31,4.52,4.75a.2.2,0,0,1,0,.08c.31.87.57,1.8.83,2.76l0,.11c.08.32.16.64.25,1l.47,1.81,0,.12.71,2.77,0,.12.72,2.77,0,.11.72,2.77,0,.12.71,2.77,0,.12.72,2.77,0,.12.71,2.77,0,.11.71,2.77,0,.12.5,1.92.22.85,0,.12c.24,1,.46,1.9.62,2.81,0,0,0,.06,0,.09.43,2.6.28,4.94-1.64,6.44a.3.3,0,0,0-.11.29.27.27,0,0,0,.34.19l36.58-9.46-.85-3.28v-.05l-.73-2.84,0,0-.73-2.84v0l-.7-2.71ZM243,56.55c-1.41.38-2.82.77-4.22,1.22-.86.28-1.71.58-2.56.9l-.63-2.45c.9-.13,1.79-.28,2.68-.45,1.43-.28,2.86-.62,4.28-1l1.52-.42.47,1.81-1.54.37m1.82.71.46,1.81-1.53.37c-1.41.37-2.83.76-4.22,1.22-.86.28-1.71.57-2.56.9l-.63-2.45c.9-.13,1.79-.28,2.67-.46,1.44-.27,2.86-.62,4.28-1l1.53-.42m-2.56-3.6c-1.42.38-2.83.77-4.22,1.23-.86.27-1.72.57-2.56.89l-.64-2.45c.9-.12,1.79-.28,2.68-.45,1.44-.28,2.86-.62,4.28-1,.51-.13,1-.27,1.52-.42l.47,1.81-1.53.37m-.75-2.88c-1.42.37-2.83.76-4.22,1.22-.86.27-1.71.57-2.56.9l-.63-2.45c.9-.13,1.79-.28,2.67-.46,1.44-.28,2.86-.62,4.28-1l1.53-.42.46,1.8-1.53.38m-.75-2.89c-1.41.38-2.82.77-4.22,1.22-.85.28-1.71.57-2.56.9l-.63-2.45c.9-.13,1.79-.28,2.67-.46,1.44-.27,2.87-.61,4.29-1l1.52-.42.47,1.81-1.54.37M240,45c-1.41.38-2.82.77-4.21,1.22-.86.28-1.72.58-2.56.9l-.64-2.45c.9-.12,1.79-.28,2.68-.45,1.44-.28,2.86-.62,4.28-1,.51-.13,1-.28,1.52-.42l.47,1.81L240,45m-.74-2.89c-1.42.38-2.83.77-4.22,1.23-.86.27-1.71.57-2.56.89l-.63-2.44c.9-.13,1.78-.29,2.67-.46,1.44-.28,2.86-.62,4.28-1l1.53-.42.46,1.81-1.53.37m-.75-2.88c-1.41.37-2.82.76-4.22,1.22-.86.28-1.71.57-2.56.89l-.42-1.65-.21-.79c.9-.13,1.79-.28,2.67-.46,1.45-.27,2.87-.62,4.29-1l1.52-.42.47,1.81-1.54.37m-.74-2.89c-1.42.38-2.83.77-4.22,1.22-.86.28-1.72.58-2.57.9-.22-.82-.45-1.64-.73-2.43.93-.13,1.86-.29,2.78-.47,1.44-.28,2.86-.62,4.28-1l1.52-.42.47,1.81-1.53.37M237,33.45c-1.42.38-2.83.77-4.22,1.22-.9.3-1.8.61-2.69.95a13.07,13.07,0,0,0-1.15-2.41c1.12-.14,2.22-.33,3.32-.54,1.44-.28,2.86-.62,4.28-1q.77-.2,1.53-.42l.46,1.81-1.53.37m1.41,34.34c1-.13,1.88-.29,2.81-.47,1.44-.28,2.86-.62,4.28-1l1.81-.5a11.21,11.21,0,0,0,.94,1.71c-.76.17-1.53.36-2.29.55-1.42.38-2.83.77-4.22,1.22-1.05.34-2.1.7-3.13,1.12a13.43,13.43,0,0,0-.2-2.65m8.48-3-1.68.4c-1.41.38-2.82.77-4.22,1.22-.89.29-1.77.6-2.64.94-.15-.83-.35-1.66-.55-2.48.9-.13,1.79-.29,2.67-.46,1.44-.28,2.87-.62,4.29-1l1.55-.42c.17.6.36,1.2.58,1.78m-2.42-2.49c-1.42.38-2.83.77-4.22,1.23-.86.27-1.72.57-2.56.9l-.18-.7L237.06,62c.89-.13,1.78-.29,2.67-.46,1.44-.28,2.86-.62,4.28-1l1.52-.42.15.57c.11.41.21.82.33,1.23l-1.54.37m-17.22-31,10.14-2.63.4,1.54-1.54.38c-1.41.37-2.82.76-4.22,1.22-1.09.35-2.18.73-3.25,1.17a6.66,6.66,0,0,0-1.53-1.68m10.81,41.78a6.56,6.56,0,0,0,.53-2.31c1.14-.14,2.26-.33,3.38-.55,1.44-.28,2.86-.62,4.28-1,.91-.25,1.81-.5,2.72-.77a5.69,5.69,0,0,0,1.77,1.33ZM271,64.55l-10.93,2.83a5.78,5.78,0,0,0,.9-2q1.26-.28,2.52-.6c1.42-.38,2.84-.77,4.23-1.23.93-.3,1.85-.62,2.77-1Zm-.61-2.37c-1,.13-1.94.3-2.89.49-1.45.27-2.88.62-4.3,1l-2,.56a10.39,10.39,0,0,0,0-1.93l1.59-.39c1.42-.38,2.84-.77,4.24-1.23.93-.29,1.85-.61,2.76-1Zm-.75-2.89c-1,.13-1.93.3-2.89.49-1.44.28-2.87.62-4.3,1-.48.12-.95.26-1.43.39-.09-.61-.22-1.22-.35-1.83L262,59c1.42-.38,2.83-.77,4.23-1.23.93-.3,1.85-.62,2.77-1Zm-.75-2.89c-1,.13-1.93.3-2.89.49-1.44.28-2.87.62-4.29,1l-1.3.35-.27-1.06L268.52,55Z" transform="translate(-17.21 -14.16)"/></g><path class="cls-5" d="M249.83,83.89a34.91,34.91,0,1,1,8.72-1.12A34.91,34.91,0,0,1,249.83,83.89Zm0-68.71A33.92,33.92,0,1,0,267,19.88,33.77,33.77,0,0,0,249.86,15.18Z" transform="translate(-17.21 -14.16)"/><path class="cls-5" d="M249.83,82.19a33.16,33.16,0,1,1,8.3-1.06h0A33,33,0,0,1,249.83,82.19Zm0-66a33.21,33.21,0,0,0-8.25,1.05A32.82,32.82,0,1,0,258,80.8h0a32.83,32.83,0,0,0-8.18-64.6Z" transform="translate(-17.21 -14.16)"/></g><rect class="cls-6" y="57.12" width="171.6" height="5.09"/><path class="cls-7" d="M74.55,57.37a54.63,54.63,0,0,0-17.12,1.27c-1.53,6.33-3.52,12.9-6.58,18-1.34,2.26-3.05,4.89-6.13,5.65s-5.46-1.21-7.06-2.89a8.11,8.11,0,0,1-2.28-4.72A9.58,9.58,0,0,1,38,67.48c3.91-4.86,10.46-8.16,17.74-9.9.94-3.81,1.73-7.72,2.39-11.61A112.64,112.64,0,0,0,59.72,32.1a17.76,17.76,0,0,0-.17-5.26,2.17,2.17,0,0,0-.15-.47c-1.72-.76-4,.36-5.06.85a35.81,35.81,0,0,0-9.73,7c-1.24,1.22-1.38,1.16-.31-.27a28.29,28.29,0,0,1,9.39-7.76c1.45-.73,3.9-2,6.2-1,1.12.56,1.24,2.54,1.32,3.9a53.7,53.7,0,0,1-.2,7.44,139.62,139.62,0,0,1-3.22,20.57,49,49,0,0,1,16.74-.25,8.75,8.75,0,0,1,2.56.65A13.49,13.49,0,0,1,74.55,57.37Zm-30.71,7.2c-2.74,2-5.75,4.61-6.51,8.31-.66,3.18,1.43,5.62,3.59,7,2.65,1.65,5-.28,6.16-1.53,2.69-3,4.34-7.1,5.76-11.12.9-2.57,1.71-5.25,2.43-8A38.09,38.09,0,0,0,43.84,64.57Z" transform="translate(-17.21 -14.16)"/><path class="cls-7" d="M84.66,54.62a23.24,23.24,0,0,1-2.31.86,9.85,9.85,0,0,1-4.74,4.75,5.92,5.92,0,0,1-2.39.52c-2,0-3-1.86-2.8-4a7.43,7.43,0,0,1,.45-1.83,3.43,3.43,0,0,1-.42-1,4.78,4.78,0,0,1,.81-3.66c1.33-2.12,4.87-5.15,8.28-3,1.42.9,2.18,2.76,1.79,5.1a11.62,11.62,0,0,1-.5,2L84.45,54C86.9,53.43,86.57,53.79,84.66,54.62ZM73.85,57.93c.66,2.43,3.63.6,4.66-.36a9.91,9.91,0,0,0,1.24-1.4c-2.16.44-4.47.57-5.93-.32A4.71,4.71,0,0,0,73.85,57.93Zm7.61-5.83c.33-2.37-.83-4.15-3.33-3.42a5.86,5.86,0,0,0-4,4,8.62,8.62,0,0,1,1.5-1.59c.55-.46.89-.6.95-.54s-.16.36-.57.91a15,15,0,0,0-1.63,2.66c.92,1.18,3.75,1,6.23.61A9,9,0,0,0,81.46,52.1Z" transform="translate(-17.21 -14.16)"/><path class="cls-7" d="M87.9,47.12c.38-1.08,2-1,1.76,0-.48,1.44-.93,2.78-1.4,4.34a27.21,27.21,0,0,0-1.61,6.79,4.88,4.88,0,0,0,.43-.38c3.27-3.08,5.59-7.22,9-10.15A2.13,2.13,0,0,1,98,47c2.33.52.51,4.61.16,5.88-.29,1.05-2,7-.12,6.37a6.74,6.74,0,0,0,1.88-1.4c.74-.71,3.64-4.13,3.78-4s-.24.86-1.15,2.25a19.58,19.58,0,0,1-2.92,3.55,3,3,0,0,1-2.24,1c-1.66-.18-1.81-2.37-1.62-4.09.28-2.62,1.3-4.86,1.51-7.43A14.32,14.32,0,0,0,96,50.39c-2.58,2.89-4.81,6.22-7.64,8.88A3.11,3.11,0,0,1,86,60.5c-1.48-.19-1.37-2.18-1.12-3.59A57.17,57.17,0,0,1,87.9,47.12ZM86.68,58.87v0ZM97.3,48.46v0Z" transform="translate(-17.21 -14.16)"/><path class="cls-7" d="M106.54,59.55c-.93.74-2.73,1.87-3.9.36-1.36-1.84,0-5,.71-6.48a12.83,12.83,0,0,1,5.06-5.89,4,4,0,0,1,3.84-.11,3.87,3.87,0,0,1,1.07,1c.72,1,.75,1.58.68,1.62a19.73,19.73,0,0,0-2.2-1.75c-1.5-.62-2.83.44-3.62,1.18a14.54,14.54,0,0,0-4,7.21c0,.2-.41,2.07,0,2a3.84,3.84,0,0,0,1.06-.74c1.91-1.49,3.54-3.31,5.35-4.91.54-.49,2.39-2.37,3.27-.87a1.38,1.38,0,0,1,.22.67c.15,2.18-1,3.89-1.55,5.75.68-.57,4.5-5.2,4.78-5s-2,3.78-2.51,4.5-1.8,2.85-3.35,2.63c-1.55-.39-.18-3.7.09-4.72.14-.48.29-1,.42-1.51C110.2,56.15,108.52,58,106.54,59.55Z" transform="translate(-17.21 -14.16)"/><path class="cls-7" d="M122.25,62.56a7.74,7.74,0,0,1,.23.86c.7,3.19-2,4.72-4,5.53a3.22,3.22,0,0,1-1.43.31c-1.1,0-1.29-1.39-.77-2.16a21.68,21.68,0,0,1,3.11-3.78l.8-.85c-.93-2.13-2.43-3.88-3.1-6.29-1.17-4.23,1.45-7.73,3.61-9.71a8,8,0,0,1,4.9-2.56,1.78,1.78,0,0,1,2,2.07c-.06.76-.3,1.08-.35,1.07s-.2-1.37-.39-1.71c-1-1.84-4.54,1.49-5.18,2.16-1.69,1.76-3.87,4.7-2.85,8.18.59,2,1.84,3.53,2.76,5.3,2.27-2.35,4.08-4.13,5-5.09,1.37-1.39,2.1-2.13,2.22-2C129.19,54.14,125.48,58.66,122.25,62.56Zm-4.52,5.61a.27.27,0,0,0,.06-.1A.37.37,0,0,0,117.73,68.17Zm2.89-3.64-2,2.42A3.32,3.32,0,0,0,120.62,64.53Z" transform="translate(-17.21 -14.16)"/><path class="cls-7" d="M163.1,46.8a39.4,39.4,0,0,0,4.21,0,8.44,8.44,0,0,1,.84,1.18,4.49,4.49,0,0,1-.54,2.52,28.71,28.71,0,0,1-3.76,5.7c-4,5.14-8.62,9.92-12.22,15.36-.56.85-4.73,6.93-1,7.49a9.25,9.25,0,0,0,3.56-.36c5.2-1.23,9.81-3.54,14.09-5.53,5.75-2.66,10.78-5.45,16.72-7.42.35-.11,3.25-1,3.34-.6,0,.09-2.63,1-3,1.14-7.55,3.28-14.53,7.56-22.32,11-3,1.35-6.32,3-10.32,3.43-2.82.33-5.54-.82-5.38-4a9.56,9.56,0,0,1,1.34-4.1,60.24,60.24,0,0,1,7-9.82c3.13-3.81,6.56-7.46,9.21-11.68a7.64,7.64,0,0,0,1.33-2.94.09.09,0,0,0,0-.05c-4.17,1-11.07.71-11.75-4.15A7.6,7.6,0,0,1,156,38.74a32.42,32.42,0,0,1,7.71-8A22.52,22.52,0,0,1,173.52,26c3-.55,6.49.36,6.12,3.89a9.67,9.67,0,0,1-1.6,4.12,40.9,40.9,0,0,1-6.24,7.14c-2.2,1.94-2.26,1.74-.37-.37,1.74-2,5.49-6.21,6.62-9.53.4-1.19.87-3.31-1.05-3.9a6.26,6.26,0,0,0-3,0,21.68,21.68,0,0,0-9.12,4.71,31.53,31.53,0,0,0-7.28,7.73c-.65,1.07-1.6,2.53-1.31,4.2C156.73,46.65,160.51,46.86,163.1,46.8Z" transform="translate(-17.21 -14.16)"/><path class="cls-7" d="M198.09,54.66c-2,2.38-4.58,5.53-7.48,7.44-1.21.82-3.92,1.62-4.17-.76A9,9,0,0,1,187.3,57c1.2-3.34,2.86-6.3,4.15-9.57a2.86,2.86,0,0,0,.31-1,2.21,2.21,0,0,0,0-.26,3.31,3.31,0,0,0-1.64.24c-1.43.38-4,1.49-5.85,1.18l-2.71,4.09,2.18-4.23a2.29,2.29,0,0,1-1.42-1.5c-.87-2.56.59-5.74,1.61-7.37a7.45,7.45,0,0,1,3.46-3.33,1.51,1.51,0,0,1,2.13,1.45A9.71,9.71,0,0,1,188,41.38a45.31,45.31,0,0,1-2.71,4.36,11.11,11.11,0,0,0,2.57-.63c1.53-.47,5.12-2,5.78.48a3.75,3.75,0,0,1-.37,2.5c-1.33,3.3-3,6.2-4.28,9.47a7.52,7.52,0,0,0-.83,3.83,2.36,2.36,0,0,0,1.71-.53c2.92-1.72,5.51-4.66,7.87-6.6C199.27,53,199.37,53.14,198.09,54.66Zm-11.35-17.1A9.9,9.9,0,0,0,184,44.78a.9.9,0,0,0,.74.92c.78-1.74,2.94-5.81,3.34-8.08a2.47,2.47,0,0,0,0-1A7.86,7.86,0,0,0,186.74,37.56Zm1.38-1s0,0,0,0Zm3.63,9.53s0,0,0,0Z" transform="translate(-17.21 -14.16)"/><path class="cls-7" d="M200.68,47.12c.37-1.08,2-1,1.75,0-.48,1.44-.92,2.78-1.4,4.34a27.65,27.65,0,0,0-1.6,6.79,4.81,4.81,0,0,0,.42-.38c3.27-3.08,5.6-7.22,9-10.15A2.14,2.14,0,0,1,210.8,47c2.33.52.5,4.61.15,5.88-.29,1.05-2,7-.11,6.37a6.84,6.84,0,0,0,1.87-1.4c.74-.71,3.64-4.13,3.79-4s-.25.86-1.16,2.25a19.93,19.93,0,0,1-2.91,3.55,3.07,3.07,0,0,1-2.25,1c-1.65-.18-1.8-2.37-1.61-4.09.28-2.62,1.29-4.86,1.5-7.43a14.32,14.32,0,0,0-1.27,1.3c-2.58,2.89-4.8,6.22-7.64,8.88a3.07,3.07,0,0,1-2.35,1.23c-1.48-.19-1.37-2.18-1.11-3.59A55.45,55.45,0,0,1,200.68,47.12Zm-1.23,11.75v0Zm10.62-10.41v0Z" transform="translate(-17.21 -14.16)"/><path class="cls-7" d="M221.33,62.56a6.06,6.06,0,0,1,.24.86c.7,3.19-2,4.72-4.06,5.53a3.18,3.18,0,0,1-1.42.31c-1.1,0-1.29-1.39-.77-2.16a21.19,21.19,0,0,1,3.1-3.78l.81-.85c-.93-2.13-2.44-3.88-3.1-6.29-1.18-4.23,1.45-7.73,3.61-9.71a8,8,0,0,1,4.9-2.56,1.78,1.78,0,0,1,2,2.07c-.06.76-.3,1.08-.36,1.07s-.19-1.37-.38-1.71c-1-1.84-4.54,1.49-5.18,2.16-1.69,1.76-3.87,4.7-2.85,8.18.59,2,1.84,3.53,2.76,5.3,2.27-2.35,4.08-4.13,5-5.09,1.38-1.39,2.11-2.13,2.23-2C228.28,54.14,224.57,58.66,221.33,62.56Zm-4.52,5.61a.14.14,0,0,0,.06-.1Zm2.9-3.64c-.78.94-1.48,1.78-2,2.42A3.32,3.32,0,0,0,219.71,64.53Z" transform="translate(-17.21 -14.16)"/><path class="cls-7" d="M234.22,33.5a18.22,18.22,0,0,1-.5,5.23,140,140,0,0,1,17.78.44c4.12.45,6.37,1.06,6.34,1.29s-2.34.15-6.42.06c-5.24-.11-11.32,0-18.11.12-.82,3.62-1.82,7-2.88,10.72a78.4,78.4,0,0,0-2.18,8.51,6.29,6.29,0,0,0-.12,2.47,4.91,4.91,0,0,0,1.58-1c1.49-1.22,7.46-7.79,7.73-7.59s-.8,1.86-3,4.7a34.88,34.88,0,0,1-3.65,4.13c-.7.64-1.72,1.74-3.09,1.52-2.66-.46-1.2-5.3-.78-7.08,1.29-5.58,3.3-11.22,4.88-16.35-3.12.06-17.77.14-17.74-.84,0-.26,2.32-.39,6.41-.57,2.43-.11,7.49-.34,11.9-.48.53-1.78,1-3.68,1.43-5.3C234,32.77,234.13,32.69,234.22,33.5Z" transform="translate(-17.21 -14.16)"/><path class="cls-8" d="M17.75,83.36a.78.78,0,0,1,.8-.82.79.79,0,0,1,.82.82.82.82,0,0,1-.82.82A.79.79,0,0,1,17.75,83.36Zm.1,1.8h1.41v6.28H17.85Z" transform="translate(-17.21 -14.16)"/><path class="cls-8" d="M27.78,87.56v3.88H26.39V87.57c0-.9-.25-1.23-.7-1.23s-.84.41-.84,1.17v3.93H23.46V87.57c0-.9-.25-1.23-.71-1.23s-.82.41-.82,1.17v3.93H20.54V85.16h.94l.12.66A1.64,1.64,0,0,1,23.08,85a1.55,1.55,0,0,1,1.43.84A1.66,1.66,0,0,1,26,85C27.11,85,27.78,85.86,27.78,87.56Z" transform="translate(-17.21 -14.16)"/><path class="cls-8" d="M31.6,83.12h1.45L34.79,87l.66,1.7,0,0a28.8,28.8,0,0,1-.21-3V83.12h1.44v8.32H35.27l-1.6-3.61c-.25-.65-.55-1.41-.78-2l0,0c.11.94.18,2.36.18,3.22v2.39H31.6Z" transform="translate(-17.21 -14.16)"/><path class="cls-8" d="M42.32,87.37v4.07H41.19l-.08-.59a1.5,1.5,0,0,1-1.4.76,1.82,1.82,0,0,1-1.89-2c0-1.31,1-2,2.35-2h.73v-.33c0-.65-.19-1-.71-1a.72.72,0,0,0-.78.68H38a2,2,0,0,1,2.21-2C41.64,85,42.32,85.83,42.32,87.37ZM40.9,88.84h-.71c-.59,0-.94.27-.94.81a.71.71,0,0,0,.8.74.82.82,0,0,0,.85-.91Z" transform="translate(-17.21 -14.16)"/><path class="cls-8" d="M50.83,87.56v3.88H49.44V87.57c0-.9-.25-1.23-.71-1.23s-.83.41-.83,1.17v3.93H46.51V87.57c0-.9-.25-1.23-.71-1.23s-.82.41-.82,1.17v3.93H43.59V85.16h.94l.12.66A1.63,1.63,0,0,1,46.13,85a1.55,1.55,0,0,1,1.43.84A1.66,1.66,0,0,1,49.07,85C50.16,85,50.83,85.86,50.83,87.56Z" transform="translate(-17.21 -14.16)"/><path class="cls-8" d="M56.41,89.46a2.26,2.26,0,1,1-4.51-.3V87.39a2.25,2.25,0,1,1,4.49,0v1.4H53.31v.37c0,.75.29,1.08.82,1.08s.76-.23.86-.78Zm-3.1-2.08v.41H55v-.41c0-.74-.29-1.07-.85-1.07S53.31,86.64,53.31,87.38Z" transform="translate(-17.21 -14.16)"/><path class="cls-8" d="M61.86,87.55v3.89h-1.4V87.58c0-.89-.25-1.24-.74-1.24s-.85.41-.85,1.17v3.93H57.46V85.16h1l.11.67A1.7,1.7,0,0,1,60.06,85C61.19,85,61.86,85.83,61.86,87.55Z" transform="translate(-17.21 -14.16)"/><path class="cls-8" d="M69.86,82.82v8.64h-1l-.07-.59a1.86,1.86,0,0,1-1.39.72c-1.2,0-2-1-2-2.46V87.45c0-1.5.8-2.45,2-2.45a1.69,1.69,0,0,1,1.07.42v-2.6Zm-1.38,4.63c0-.71-.31-1.11-.84-1.11s-.81.35-.81,1.11v1.68c0,.76.29,1.13.81,1.13s.84-.39.84-1.13Z" transform="translate(-17.21 -14.16)"/><path class="cls-8" d="M75.49,89.46a2.26,2.26,0,1,1-4.51-.3V87.39a2.25,2.25,0,1,1,4.49,0v1.4H72.39v.37c0,.75.3,1.08.82,1.08s.76-.23.87-.78Zm-3.1-2.08v.41h1.69v-.41c0-.74-.3-1.07-.86-1.07S72.39,86.64,72.39,87.38Z" transform="translate(-17.21 -14.16)"/><path class="cls-8" d="M76.15,89.47h1.41a.83.83,0,0,0,.91.86c.51,0,.81-.25.81-.63,0-1.12-3-.76-3-2.9,0-1.12.82-1.8,2.1-1.8a2,2,0,0,1,2.16,2.06H79.16a.73.73,0,0,0-.8-.81c-.44,0-.71.22-.71.56,0,1,3,.62,3,2.89a1.91,1.91,0,0,1-2.17,1.91A2.16,2.16,0,0,1,76.15,89.47Z" transform="translate(-17.21 -14.16)"/><path class="cls-8" d="M88.4,85.16v6.55a2,2,0,0,1-2.16,2,2,2,0,0,1-2.15-2h1.38a.72.72,0,0,0,.77.72.68.68,0,0,0,.74-.73v-.87a1.89,1.89,0,0,1-1.06.32,2.1,2.1,0,0,1-2-2.33V87.38a2.12,2.12,0,0,1,2-2.38,1.85,1.85,0,0,1,1.4.58l.1-.42ZM87,88.83V87.35c0-.66-.32-1-.83-1s-.82.33-.82,1v1.45c0,.66.28,1,.82,1S87,89.49,87,88.83Z" transform="translate(-17.21 -14.16)"/><path class="cls-8" d="M94.05,89.46a2.26,2.26,0,1,1-4.51-.3V87.39a2.25,2.25,0,1,1,4.49,0v1.4H91v.37c0,.75.29,1.08.82,1.08s.76-.23.86-.78ZM91,87.38v.41h1.68v-.41c0-.74-.29-1.07-.85-1.07S91,86.64,91,87.38Z" transform="translate(-17.21 -14.16)"/><path class="cls-8" d="M94.71,89.47h1.4a.83.83,0,0,0,.92.86c.51,0,.81-.25.81-.63,0-1.12-3-.76-3-2.9,0-1.12.82-1.8,2.1-1.8a2,2,0,0,1,2.15,2.06H97.72a.73.73,0,0,0-.8-.81c-.44,0-.71.22-.71.56,0,1,3,.62,3,2.89a1.91,1.91,0,0,1-2.17,1.91A2.16,2.16,0,0,1,94.71,89.47Z" transform="translate(-17.21 -14.16)"/><path class="cls-8" d="M104.33,87.37v4.07H103.2l-.09-.59a1.49,1.49,0,0,1-1.39.76,1.82,1.82,0,0,1-1.89-2c0-1.31,1-2,2.34-2h.74v-.33c0-.65-.19-1-.71-1a.73.73,0,0,0-.79.68H100a2,2,0,0,1,2.21-2C103.65,85,104.33,85.83,104.33,87.37Zm-1.42,1.47h-.71c-.6,0-.94.27-.94.81a.71.71,0,0,0,.8.74.82.82,0,0,0,.85-.91Z" transform="translate(-17.21 -14.16)"/><path class="cls-8" d="M112.83,87.56v3.88h-1.39V87.57c0-.9-.25-1.23-.7-1.23s-.83.41-.83,1.17v3.93h-1.39V87.57c0-.9-.25-1.23-.71-1.23s-.82.41-.82,1.17v3.93H105.6V85.16h.93l.12.66a1.65,1.65,0,0,1,1.49-.82,1.52,1.52,0,0,1,1.42.84,1.68,1.68,0,0,1,1.51-.84C112.17,85,112.83,85.86,112.83,87.56Z" transform="translate(-17.21 -14.16)"/><path class="cls-8" d="M117,90.21v1.32h-.47a2,2,0,0,1-2.1-2.2v-2.9h-.85V85.16h.85v-1.5h1.39v1.5h1.09v1.27h-1.09v2.91c0,.59.25.87.79.87Z" transform="translate(-17.21 -14.16)"/><path class="cls-8" d="M122.29,89.46a2.26,2.26,0,1,1-4.51-.3V87.39a2.25,2.25,0,1,1,4.49,0v1.4h-3.08v.37c0,.75.3,1.08.82,1.08s.76-.23.87-.78Zm-3.1-2.08v.41h1.69v-.41c0-.74-.3-1.07-.86-1.07S119.19,86.64,119.19,87.38Z" transform="translate(-17.21 -14.16)"/><path class="cls-8" d="M127.74,87.55v3.89h-1.4V87.58c0-.89-.25-1.24-.74-1.24s-.85.41-.85,1.17v3.93h-1.4V85.16h1l.11.67a1.7,1.7,0,0,1,1.53-.83C127.07,85,127.74,85.83,127.74,87.55Z" transform="translate(-17.21 -14.16)"/><path class="cls-8" d="M135.63,90.05v1.39h-4.06V83.12H133v6.93Z" transform="translate(-17.21 -14.16)"/><path class="cls-8" d="M136.2,89.15v-1.7a2.28,2.28,0,1,1,4.55,0v1.7a2.28,2.28,0,1,1-4.55,0Zm3.13,0v-1.7c0-.76-.31-1.08-.86-1.08s-.84.32-.84,1.08v1.7c0,.75.31,1.08.84,1.08S139.33,89.9,139.33,89.15Z" transform="translate(-17.21 -14.16)"/><path class="cls-8" d="M146.24,85.16v6.55a2.16,2.16,0,0,1-4.31,0h1.38a.71.71,0,0,0,.77.72.68.68,0,0,0,.74-.73v-.87a1.89,1.89,0,0,1-1.06.32,2.1,2.1,0,0,1-2-2.33V87.38a2.12,2.12,0,0,1,2-2.38,1.87,1.87,0,0,1,1.4.58l.1-.42Zm-1.42,3.67V87.35c0-.66-.32-1-.84-1s-.82.33-.82,1v1.45c0,.66.29,1,.82,1S144.82,89.49,144.82,88.83Z" transform="translate(-17.21 -14.16)"/><path class="cls-8" d="M147.42,83.36a.78.78,0,0,1,.8-.82.8.8,0,0,1,.83.82.83.83,0,0,1-.83.82A.79.79,0,0,1,147.42,83.36Zm.1,1.8h1.41v6.28h-1.41Z" transform="translate(-17.21 -14.16)"/><path class="cls-8" d="M154.61,87.55v3.89H153.2V87.58c0-.89-.25-1.24-.73-1.24s-.86.41-.86,1.17v3.93h-1.4V85.16h.95l.12.67A1.68,1.68,0,0,1,152.8,85C153.93,85,154.61,85.83,154.61,87.55Z" transform="translate(-17.21 -14.16)"/><path class="cls-8" d="M155.59,87.78h2.94V89h-2.94Z" transform="translate(-17.21 -14.16)"/><path class="cls-8" d="M163.43,84.51h-1.67v6.93h-1.5V84.51h-1.68V83.12h4.85Z" transform="translate(-17.21 -14.16)"/><path class="cls-8" d="M167.84,89.46a2.26,2.26,0,1,1-4.5-.3V87.39a2.24,2.24,0,1,1,4.48,0v1.4h-3.08v.37c0,.75.3,1.08.82,1.08s.76-.23.87-.78Zm-3.1-2.08v.41h1.69v-.41c0-.74-.3-1.07-.86-1.07S164.74,86.64,164.74,87.38Z" transform="translate(-17.21 -14.16)"/><path class="cls-8" d="M173.07,87.37v4.07h-1.13l-.08-.59a1.49,1.49,0,0,1-1.39.76,1.82,1.82,0,0,1-1.89-2c0-1.31.95-2,2.34-2h.74v-.33c0-.65-.19-1-.72-1a.72.72,0,0,0-.78.68h-1.41A2,2,0,0,1,171,85C172.39,85,173.07,85.83,173.07,87.37Zm-1.41,1.47h-.72c-.59,0-.94.27-.94.81a.71.71,0,0,0,.8.74.82.82,0,0,0,.86-.91Z" transform="translate(-17.21 -14.16)"/><path class="cls-8" d="M181.58,87.56v3.88h-1.39V87.57c0-.9-.25-1.23-.7-1.23s-.84.41-.84,1.17v3.93h-1.39V87.57c0-.9-.25-1.23-.71-1.23s-.82.41-.82,1.17v3.93h-1.39V85.16h.94l.12.66a1.64,1.64,0,0,1,1.48-.82,1.55,1.55,0,0,1,1.43.84,1.66,1.66,0,0,1,1.51-.84C180.91,85,181.58,85.86,181.58,87.56Z" transform="translate(-17.21 -14.16)"/><path class="cls-8" d="M182.41,89.47h1.4a.83.83,0,0,0,.91.86c.52,0,.81-.25.81-.63,0-1.12-3-.76-3-2.9,0-1.12.82-1.8,2.11-1.8a2,2,0,0,1,2.15,2.06h-1.36c0-.5-.26-.81-.79-.81s-.72.22-.72.56c0,1,3,.62,3,2.89a1.92,1.92,0,0,1-2.18,1.91A2.15,2.15,0,0,1,182.41,89.47Z" transform="translate(-17.21 -14.16)"/><path class="cls-8" d="M22.17,95.21v8.64h-1l-.07-.59a1.88,1.88,0,0,1-1.39.72c-1.2,0-2-1-2-2.46V99.84c0-1.5.8-2.45,2-2.45a1.69,1.69,0,0,1,1.07.42v-2.6Zm-1.38,4.63c0-.71-.31-1.11-.84-1.11s-.81.35-.81,1.11v1.68c0,.76.29,1.13.81,1.13s.84-.39.84-1.13Z" transform="translate(-17.21 -14.16)"/><path class="cls-8" d="M27.8,101.85a2.26,2.26,0,1,1-4.51-.3V99.78a2.12,2.12,0,0,1,2.23-2.39,2.13,2.13,0,0,1,2.26,2.39v1.4H24.7v.37c0,.75.29,1.08.82,1.08s.76-.23.87-.78Zm-3.1-2.08v.41h1.69v-.41c0-.74-.3-1.07-.86-1.07S24.7,99,24.7,99.77Z" transform="translate(-17.21 -14.16)"/><path class="cls-8" d="M32.21,97.52v1.36a1.9,1.9,0,0,0-.78-.16c-.72,0-1.17.47-1.17,1.38v3.73h-1.4V97.55h.95l.13.74a1.71,1.71,0,0,1,1.59-.89A1.69,1.69,0,0,1,32.21,97.52Z" transform="translate(-17.21 -14.16)"/><path class="cls-8" d="M35.32,101.33V98a2.36,2.36,0,0,1,2.54-2.65c1.55,0,2.43.93,2.49,2.61H38.88c0-.84-.35-1.2-1-1.2s-1,.37-1,1.24v3.31c0,.86.38,1.23,1.06,1.23s1.08-.37,1.08-1.21v-.81H37.81V99.25h2.58v2.1a2.54,2.54,0,1,1-5.07,0Z" transform="translate(-17.21 -14.16)"/><path class="cls-8" d="M45.86,101.85a2.26,2.26,0,1,1-4.51-.3V99.78a2.25,2.25,0,1,1,4.49,0v1.4H42.76v.37c0,.75.29,1.08.82,1.08s.76-.23.86-.78Zm-3.1-2.08v.41h1.68v-.41c0-.74-.29-1.07-.85-1.07S42.76,99,42.76,99.77Z" transform="translate(-17.21 -14.16)"/><path class="cls-8" d="M53.88,97.55l-1.46,6.28H50.91l-.42-1.8a20.26,20.26,0,0,1-.43-2.67H50a21.87,21.87,0,0,1-.42,2.67l-.42,1.8H47.64l-1.46-6.28h1.45l.44,2.48c.12.72.28,1.78.33,2.26h.06c.07-.56.23-1.46.36-2.2l.47-2.43h1.49l.46,2.43c.13.74.29,1.64.36,2.2h.06c.05-.48.21-1.54.33-2.26l.44-2.48Z" transform="translate(-17.21 -14.16)"/><path class="cls-8" d="M58.91,101.85a2.26,2.26,0,1,1-4.51-.3V99.78a2.24,2.24,0,1,1,4.48,0v1.4H55.8v.37c0,.75.3,1.08.82,1.08s.76-.23.87-.78ZM55.8,99.77v.41h1.69v-.41c0-.74-.3-1.07-.86-1.07S55.8,99,55.8,99.77Z" transform="translate(-17.21 -14.16)"/><path class="cls-8" d="M63.31,97.52v1.36a1.82,1.82,0,0,0-.77-.16c-.73,0-1.18.47-1.18,1.38v3.73H60V97.55h.95l.13.74a1.72,1.72,0,0,1,1.59-.89A1.66,1.66,0,0,1,63.31,97.52Z" transform="translate(-17.21 -14.16)"/><path class="cls-8" d="M68.52,99.84v1.68c0,1.51-.81,2.46-2,2.46a1.88,1.88,0,0,1-1.38-.7l-.09.57h-1V95.21h1.37v2.6a1.62,1.62,0,0,1,1.07-.42C67.71,97.39,68.52,98.34,68.52,99.84Zm-1.43,0c0-.76-.29-1.11-.81-1.11s-.85.4-.85,1.11v1.68c0,.74.33,1.13.85,1.13s.81-.37.81-1.13Z" transform="translate(-17.21 -14.16)"/><path class="cls-8" d="M69.58,95.21H71v8.62H69.58Z" transform="translate(-17.21 -14.16)"/><path class="cls-8" d="M72.1,95.75a.78.78,0,0,1,.81-.82.8.8,0,0,1,.82.82.82.82,0,0,1-.82.82A.79.79,0,0,1,72.1,95.75Zm.11,1.8h1.4v6.28h-1.4Z" transform="translate(-17.21 -14.16)"/><path class="cls-8" d="M74.75,101.63V99.72a2.08,2.08,0,0,1,2.19-2.33,2.12,2.12,0,0,1,2.26,2.33H77.78c0-.65-.31-1-.82-1s-.79.34-.79,1v1.91c0,.67.28,1,.79,1s.8-.33.83-1h1.42A2.16,2.16,0,0,1,76.94,104,2.09,2.09,0,0,1,74.75,101.63Z" transform="translate(-17.21 -14.16)"/><path class="cls-8" d="M84.48,100v3.84h-1.4V100c0-.93-.25-1.28-.74-1.28s-.85.41-.85,1.17v3.93h-1.4v-8.6h1.4v2.84a1.48,1.48,0,0,1,1.23-.68C83.83,97.39,84.48,98.26,84.48,100Z" transform="translate(-17.21 -14.16)"/><path class="cls-8" d="M90.07,101.85a2.26,2.26,0,1,1-4.51-.3V99.78a2.24,2.24,0,1,1,4.48,0v1.4H87v.37c0,.75.29,1.08.82,1.08s.76-.23.86-.78ZM87,99.77v.41h1.68v-.41c0-.74-.29-1.07-.85-1.07S87,99,87,99.77Z" transform="translate(-17.21 -14.16)"/><path class="cls-8" d="M95.52,99.94v3.89h-1.4V100c0-.89-.25-1.24-.74-1.24s-.85.41-.85,1.17v3.93H91.12V97.55h.95l.12.67a1.69,1.69,0,0,1,1.53-.83C94.84,97.39,95.52,98.22,95.52,99.94Z" transform="translate(-17.21 -14.16)"/><path class="cls-8" d="M98.82,101.48h1.5c0,.75.4,1.09,1,1.09a.88.88,0,0,0,1-.92c0-1.51-3.35-1.63-3.35-4.14a2.13,2.13,0,0,1,2.35-2.16,2.22,2.22,0,0,1,2.4,2.4h-1.49c0-.67-.35-1-.91-1a.77.77,0,0,0-.87.79c0,1.45,3.39,1.49,3.39,4.11a2.3,2.3,0,0,1-2.52,2.34A2.33,2.33,0,0,1,98.82,101.48Z" transform="translate(-17.21 -14.16)"/><path class="cls-8" d="M104.6,101.63V99.72a2.08,2.08,0,0,1,2.18-2.33A2.12,2.12,0,0,1,109,99.72h-1.41c0-.65-.31-1-.82-1s-.8.34-.8,1v1.91c0,.67.29,1,.8,1s.79-.33.83-1h1.41a2.15,2.15,0,0,1-2.27,2.35A2.08,2.08,0,0,1,104.6,101.63Z" transform="translate(-17.21 -14.16)"/><path class="cls-8" d="M114.33,100v3.84h-1.4V100c0-.93-.25-1.28-.74-1.28s-.86.41-.86,1.17v3.93h-1.4v-8.6h1.4v2.84a1.5,1.5,0,0,1,1.24-.68C113.68,97.39,114.33,98.26,114.33,100Z" transform="translate(-17.21 -14.16)"/><path class="cls-8" d="M119.89,97.55v6.28h-1l-.12-.67a1.68,1.68,0,0,1-1.52.83c-1.13,0-1.81-.83-1.81-2.55V97.55h1.4v3.86c0,.89.25,1.24.74,1.24s.86-.41.86-1.17V97.55Z" transform="translate(-17.21 -14.16)"/><path class="cls-8" d="M121.11,95.21h1.4v8.62h-1.4Z" transform="translate(-17.21 -14.16)"/><path class="cls-8" d="M128.1,101.85a2.26,2.26,0,1,1-4.51-.3V99.78a2.25,2.25,0,1,1,4.49,0v1.4H125v.37c0,.75.29,1.08.82,1.08s.76-.23.86-.78ZM125,99.77v.41h1.68v-.41c0-.74-.29-1.07-.85-1.07S125,99,125,99.77Z" transform="translate(-17.21 -14.16)"/><path class="cls-8" d="M135.82,102.44v1.39h-4.06V95.51h1.46v6.93Z" transform="translate(-17.21 -14.16)"/><path class="cls-8" d="M140.71,99.76v4.07h-1.13l-.09-.59a1.49,1.49,0,0,1-1.39.76,1.82,1.82,0,0,1-1.89-2c0-1.31.95-2,2.34-2h.74v-.33c0-.64-.19-1-.71-1a.73.73,0,0,0-.79.69h-1.4a2,2,0,0,1,2.21-2C140,97.39,140.71,98.22,140.71,99.76Zm-1.42,1.47h-.71c-.6,0-.94.27-.94.81a.71.71,0,0,0,.8.74.82.82,0,0,0,.85-.91Z" transform="translate(-17.21 -14.16)"/><path class="cls-8" d="M146.37,100v3.84H145V100c0-.93-.25-1.28-.74-1.28s-.85.41-.85,1.17v3.93H142v-8.6h1.41v2.84a1.46,1.46,0,0,1,1.23-.68C145.72,97.39,146.37,98.26,146.37,100Z" transform="translate(-17.21 -14.16)"/><path class="cls-8" d="M151,97.52v1.36a1.9,1.9,0,0,0-.78-.16c-.72,0-1.17.47-1.17,1.38v3.73h-1.41V97.55h.95l.14.74a1.71,1.71,0,0,1,1.59-.89A1.69,1.69,0,0,1,151,97.52Z" transform="translate(-17.21 -14.16)"/></g></g></svg>